<ttFont>
<head>
    <!-- Most of this table will be recalculated by the compiler -->
    <tableVersion value="1.0"/>
    <fontRevision value="2.004"/>
    <checkSumAdjustment value="0xc9cb8120"/>
    <magicNumber value="0x5f0f3cf5"/>
    <flags value="00000000 00000011"/>
    <unitsPerEm value="1000"/>
    <created value="Thu Oct  8 10:02:11 2009"/>
    <modified value="Thu Oct  8 10:02:11 2009"/>
    <xMin value="-480"/>
    <yMin value="-308"/>
    <xMax value="789"/>
    <yMax value="1039"/>
    <macStyle value="00000000 00000011"/>
    <lowestRecPPEM value="3"/>
    <fontDirectionHint value="2"/>
    <indexToLocFormat value="0"/>
    <glyphDataFormat value="0"/>
  </head>
          <CharString index="0">
            rmoveto
            3 20 -22 11 -30 12 -73 28 rcurveline
            -12 5 -6 0 -14 -5 -83 -28 rcurveline
            -35 -12 -25 -11 -3 -20 rrcurveto
            -18 -3 5 -21 27 hhcurveto
            9 20 6 6 21 hvcurveto
            70 20 62 -20 rlineto
            -6 19 18 -6 9 hhcurveto
            27 13 21 18 3 hvcurveto
            return
          </CharString>
          <CharString index="1">
            522 305 rmoveto
            290 48 -18 27 -186 hhcurveto
            -186 -28 -26 -291 -48 hvcurveto
            -290 -48 18 -26 186 193 callgsubr
            -82 9 rmoveto
            -10 -60 -11 -69 -20 -52 rrcurveto
            -51 -18 -27 -18 -81 hhcurveto
            -80 -20 18 46 -4 hvcurveto
            -4 48 15 85 8 53 10 56 10 62 16 44 rrcurveto
            61 25 30 10 74 hhcurveto
            68 32 -7 -50 5 hvcurveto
            4 -45 -12 -72 -10 -59 rrcurveto
            return
          </CharString>
          <CharString index="2">
            hintmask 01100000
            519 38 rmoveto
            205 callsubr
            -16 hhcurveto
            -36 102 callgsubr
            36 6 -6 12 -39 hhcurveto
            -71 hlineto
            -19 -30 -2 -36 -48 callsubr
            17 hhcurveto
            36 hlineto
            -33 -200 rlineto
            hintmask 10100000
            -81 -14 -75 -11 -29 hhcurveto
            -68 3 28 28 5 hvcurveto
            44 263 77 callsubr
            -2 -36 58 callgsubr
            36 hlineto
            -40 -242 rlineto
            -99 -17 67 -26 76 hhcurveto
            37 40 9 22 37 hvcurveto
            hintmask 01000000
            -24 3 20 -1 19 hhcurveto
            71 46 callsubr
            return
          </CharString>
          <CharString index="3">
            rmoveto
            24 4 -15 18 -24 hhcurveto
            0 -9 0 -14 -6 vhcurveto
            -138 -58 -18 -7 -14 -7 -3 -22 rlinecurve
            -9 -2 -41 callsubr
            139 58 30 13 6 42 callgsubr
          </CharString>
          <CharString index="4">
            rmoveto
            -102 callgsubr
            endchar
          </CharString>
          <CharString index="5">
            506 218 rmoveto
            127 22 -79 99 -113 hhcurveto
            -113 -111 -99 -127 -22 hvcurveto
            -128 -21 81 -96 111 hhcurveto
            111 113 97 127 21 hvcurveto
            -81 7 rmoveto
            -86 -15 -68 -70 -68 hhcurveto
            -68 -46 70 86 15 hvcurveto
            84 14 70 60 65 hhcurveto
            66 49 -60 -84 -14 hvcurveto
            return
          </CharString>
          <CharString index="6">
            -35 callsubr
            -68 -412 -91 447 -15 callsubr
            -76 -461 rlineto
            -17 -96 callgsubr
            28 -1 19 hhcurveto
            103 -38 callgsubr
            68 412 91 -447 rlineto
            -39 7 18 -1 29 hhcurveto
            35 14 4 44 7 hvcurveto
            81 488 rlineto
            17 -77 callsubr
            return
          </CharString>
          <CharString index="7">
            538 242 rmoveto
            35 6 -29 2 -18 hhcurveto
            -116 hlineto
            -18 -30 -2 -35 91 callsubr
            32 hlineto
            -98 -28 -49 -42 -48 hhcurveto
            -76 -52 103 138 23 hvcurveto
            144 24 89 98 73 hhcurveto
            32 54 -22 -99 -2 hvcurveto
            -21 4 -14 31 41 5 24 24 4 vhcurveto
            23 135 rlineto
            19 3 4 29 -36 hhcurveto
            -21 -10 -9 -30 -19 hvcurveto
            26 -28 -36 13 -40 hhcurveto
            -120 -128 -135 -181 -30 hvcurveto
            -184 -31 84 -133 119 hhcurveto
            48 42 21 21 26 hvcurveto
            -18 -1 6 -13 31 hhcurveto
            40 5 25 23 4 hvcurveto
            26 156 rlineto
            25 22 5 33 5 hvcurveto
            return
          </CharString>
          <CharString index="8">
            464 37 rmoveto
            -6 callsubr
            10 callgsubr
            -138 hlineto
            -18 -31 -2 -35 -5 hvcurveto
            -37 -7 104 callgsubr
            102 hlineto
            -52 callsubr
            287 -77 callsubr
            return
          </CharString>
          <CharString index="9">
            -96 callgsubr
            29 -10 callsubr
            return
          </CharString>
          <CharString index="10">
            -34 -25 -25 -27 -5 hvcurveto
            -33 -5 22 -22 28 hhcurveto
            3 hlineto
            -17 -31 -27 -9 -8 -2 -9 -3 -18 -6 -3 -19 rrcurveto
            -14 -3 12 -17 16 hhcurveto
            25 88 42 86 15 hvcurveto
            endchar
          </CharString>
          <CharString index="11">
            rmoveto
            4 23 -14 9 -27 20 -80 58 rcurveline
            -9 7 -12 0 -11 -7 -100 -58 rcurveline
            -32 -19 -19 -10 -2 -23 rrcurveto
            -21 -3 10 -11 27 hhcurveto
            9 26 14 7 12 hvcurveto
            75 42 61 -42 rlineto
            -8 11 19 -13 9 hhcurveto
            27 14 11 21 5 hvcurveto
            return
          </CharString>
          <CharString index="12">
            36 6 -30 4 callgsubr
            -125 -94 callgsubr
            return
          </CharString>
          <CharString index="13">
            -18 -92 callgsubr
            return
          </CharString>
          <CharString index="14">
            -20 -104 callgsubr
            return
          </CharString>
          <CharString index="15">
            83 callsubr
            131 83 -29 83 hintmask 0100000010000000
            617 574 rmoveto
            -95 callsubr
            hintmask 1000001100000000
            -44 callgsubr
            hintmask 0100010000000000
            54 325 rlineto
            21 hlineto
            18 31 1 37 6 hvcurveto
            -95 callsubr
            hintmask 1000100100000000
            -51 callgsubr
            hintmask 0100000010000000
            -11 callsubr
            return
          </CharString>
          <CharString index="16">
            -64 callgsubr
            hintmask 1111001011000000
            94 87 74 91 15 hvcurveto
            5 28 -3 27 -11 26 16 7 15 3 11 2 rrcurveto
            -26 5 22 -7 11 hhcurveto
            20 30 14 34 5 hvcurveto
            -210 -108 rmoveto
            -51 -8 -46 -40 -47 hhcurveto
            -48 -31 42 48 8 hvcurveto
            51 9 45 39 47 hhcurveto
            48 31 -42 -47 -8 hvcurveto
            48 -350 rmoveto
            -41 -7 -77 -36 -92 hhcurveto
            -92 -65 36 41 7 hvcurveto
            3 16 12 28 32 18 rrcurveto
            14 25 9 0 69 hhcurveto
            hintmask 0000000000100000
            167 callgsubr
            return
          </CharString>
          <CharString index="17">
            568 398 rmoveto
            37 7 -28 -12 callgsubr
            -114 hlineto
            148 callgsubr
            -37 -7 28 119 callgsubr
            -129 -261 -56 261 rlineto
            13 -9 callgsubr
            -114 hlineto
            -19 -28 -1 -37 -7 147 callsubr
            25 hlineto
            81 -353 -6 -11 -32 -70 -15 -22 rlinecurve
            -38 -26 -35 -23 -19 hhcurveto
            2 4 10 3 3 15 rrcurveto
            return
          </CharString>
          <CharString index="18">
            2 17 -14 14 -10 11 -40 44 168 callsubr
            -43 rcurveline
            -10 9 14 -12 13 hhcurveto
            20 26 26 20 4 hvcurveto
            -194 hmoveto
            2 17 -14 14 -10 11 -40 44 168 callsubr
            -43 rcurveline
            -10 9 14 -12 13 hhcurveto
            20 26 26 20 4 hvcurveto
            endchar
          </CharString>
          <CharString index="19">
            603 634 rmoveto
            5 33 -7 40 -42 1 -34 -1 -28 -27 -4 -28 -4 -20 7 -19 16 -10 rrcurveto
            -3 -1 -5 -2 0 vvcurveto
            21 -34 -55 1 -50 hhcurveto
            -66 -76 -2 -51 -41 hvcurveto
            -40 -50 -22 -123 -15 -91 -15 -90 -20 -123 24 -50 rrcurveto
            -51 24 75 -2 66 hhcurveto
            67 75 2 51 43 hvcurveto
            40 50 22 123 15 90 13 76 16 98 -10 59 33 20 23 38 7 38 rrcurveto
            -164 -316 rmoveto
            -12 -74 -17 -103 -27 -39 rrcurveto
            -35 -24 -46 -3 -41 hhcurveto
            -41 -45 3 35 -12 hvcurveto
            -14 39 17 103 12 74 rrcurveto
            return
          </CharString>
          <CharString index="20">
            -41 -5 -24 -24 -4 189 callgsubr
            -245 hlineto
            34 204 rlineto
            112 hlineto
            -41 -6 1 -15 37 hhcurveto
            40 5 25 23 4 hvcurveto
            return
          </CharString>
          <CharString index="21">
            rmoveto
            3 22 -10 7 -16 7 -120 58 rcurveline
            -12 6 -9 0 0 vvcurveto
            -24 -21 -18 -24 -4 hvcurveto
            -2 -13 2 -15 26 -13 152 callgsubr
            6 6 -2 8 hhcurveto
            31 15 37 9 2 hvcurveto
            endchar
          </CharString>
          <CharString index="22">
            hlineto
            -80 callgsubr
            30 -1 return
          </CharString>
          <CharString index="23">
            -6 -13 callsubr
            return
          </CharString>
          <CharString index="24">
            hintmask 00110000
            577 399 rmoveto
            35 5 -27 2 -21 229 callsubr
            -22 -28 -2 -35 -5 hvcurveto
            -37 -7 26 -1 23 hhcurveto
            38 hlineto
            -83 -246 -6 75 rlineto
            68 -8 -4 10 -37 hhcurveto
            -12 -21 0 -26 -18 hvcurveto
            -59 -129 -2 248 rlineto
            38 hlineto
            22 59 callgsubr
            36 6 -25 2 -23 229 callsubr
            -21 -29 -2 -35 -5 hvcurveto
            -34 -6 19 -4 31 hhcurveto
            hintmask 11010000
            5 -321 rlineto
            -27 -1 1 -17 45 hhcurveto
            43 7 8 66 27 hvcurveto
            40 92 14 -145 rlineto
            -20 10 20 -1 14 hhcurveto
            42 7 18 26 9 hvcurveto
            111 321 rlineto
            31 21 4 34 6 hvcurveto
            return
          </CharString>
          <CharString index="25">
            -1 -37 -84 callsubr
            return
          </CharString>
          <CharString index="26">
            502 170 rmoveto
            11 65 -29 43 -10 13 -35 40 -26 7 -75 18 -75 18 rcurveline
            -36 11 -30 31 7 42 rrcurveto
            46 8 52 43 65 hhcurveto
            105 3 -87 -29 -26 11 -7 24 41 5 24 23 4 hvcurveto
            22 129 rlineto
            19 3 4 29 -36 hhcurveto
            -24 -11 -14 -26 -12 hvcurveto
            29 -35 -48 11 -42 hhcurveto
            -113 -90 -81 -87 -14 hvcurveto
            -12 -68 35 -68 81 -24 108 -27 rcurveline
            return
          </CharString>
          <CharString index="27">
            22 71 callgsubr
            -6 -15 -40 -8 hvcurveto
            -112 hlineto
            30 182 rlineto
            223 157 callgsubr
            return
          </CharString>
          <CharString index="28">
            -68 callgsubr
            385 hlineto
            38 11 10 38 6 hvcurveto
            return
          </CharString>
          <CharString index="29">
            rmoveto
            4 22 -11 7 -16 7 -119 58 rcurveline
            -12 6 -9 0 0 vvcurveto
            -24 -21 -18 -24 -4 hvcurveto
            -2 -13 1 -16 26 -12 152 callgsubr
            7 5 -2 8 hhcurveto
            31 16 163 callgsubr
          </CharString>
          <CharString index="30">
            hlineto
            -40 callgsubr
            return
          </CharString>
          <CharString index="31">
            56 callgsubr
            -364 -94 callgsubr
            return
          </CharString>
          <CharString index="32">
            13 -12 -17 22 -36 hhcurveto
            -28 -32 117 callsubr
            return
          </CharString>
          <CharString index="33">
            -64 callsubr
            37 6 -28 -12 callgsubr
            return
          </CharString>
          <CharString index="34">
            hintmask 10001000
            -8 callsubr
            hintmask 01000100
            -85 callgsubr
            hintmask 10001000
            -70 callgsubr
            return
          </CharString>
          <CharString index="35">
            rmoveto
            19 3 -14 55 callgsubr
            hintmask 00010000
            -25 -33 -27 callgsubr
            hintmask 00001000
            -75 callsubr
            hintmask 00010000
            -3 callsubr
            hintmask 00001000
            3 callgsubr
            hintmask 00010000
            94 callsubr
            31 -50 callgsubr
          </CharString>
          <CharString index="36">
            527 38 rmoveto
            36 6 -28 4 callgsubr
            -29 -14 3 3 -7 hvcurveto
            114 callgsubr
            72 12 -40 86 -146 hhcurveto
            -45 -104 -3 -76 -13 hvcurveto
            -34 -6 21 -18 27 hhcurveto
            17 35 10 43 8 hvcurveto
            0 33 3 16 66 42 -25 -59 -6 vhcurveto
            -174 -4 -128 -53 -16 -95 rrcurveto
            hintmask 1000000000000000
            -71 -12 53 -68 105 hhcurveto
            35 60 7 28 51 hvcurveto
            hintmask 0100000000000000
            -27 20 45 -2 37 hhcurveto
            33 24 2 -55 callsubr
            -165 100 rmoveto
            -3 -19 -3 -19 -36 -15 rrcurveto
            hintmask 1000000000000000
            -16 -36 -42 0 -8 hhcurveto
            -55 -33 29 35 6 hvcurveto
            8 44 84 30 130 5 rrcurveto
            return
          </CharString>
          <CharString index="37">
            -37 -7 64 callgsubr
            71 152 callsubr
            -71 -96 callgsubr
            28 -1 19 hhcurveto
            254 hlineto
            18 194 callsubr
            -18 hhcurveto
            -100 hlineto
            19 114 rlineto
            return
          </CharString>
          <CharString index="38">
            388 461 14 16 1 7 2 11 rlinecurve
            40 7 -25 1 -22 hhcurveto
            -326 67 callgsubr
            48 callgsubr
            7 44 rlineto
            229 hlineto
            -388 -461 -14 -16 -1 -7 -2 -11 rlinecurve
            -40 -7 25 -1 22 hhcurveto
            343 hlineto
            39 10 10 38 6 hvcurveto
            return
          </CharString>
          <CharString index="39">
            rmoveto
            53 12 -37 9 -15 hhcurveto
            -22 -35 -12 -50 -6 hvcurveto
            -20 -198 rlineto
            -18 -2 1 -24 33 hhcurveto
            30 11 21 20 4 hvcurveto
            return
          </CharString>
          <CharString index="40">
            37 6 39 callsubr
            return
          </CharString>
          <CharString index="41">
            29 -62 callsubr
            return
          </CharString>
          <CharString index="42">
            25 -5 74 -18 -13 -79 rrcurveto
            -48 -8 -49 -53 -72 hhcurveto
            -25 -43 4 22 -32 hvcurveto
            -38 28 2 38 2 16 rrcurveto
            20 2 3 21 -39 hhcurveto
            -41 -4 -24 -23 -4 hvcurveto
            -22 -129 rlineto
            -19 -3 -4 -29 36 hhcurveto
            22 11 12 28 14 hvcurveto
            -26 36 54 -14 59 hhcurveto
            118 88 90 91 15 hvcurveto
            return
          </CharString>
          <CharString index="43">
            30 -82 callgsubr
            return
          </CharString>
          <CharString index="44">
            rmoveto
            3 20 -22 11 -30 12 -73 28 rcurveline
            -12 5 -6 0 -14 -5 -83 -28 rcurveline
            -35 -12 -25 -11 -3 -20 rrcurveto
            hintmask 0000100000000000
            -18 -3 5 -21 27 hhcurveto
            hintmask 0001001000000000
            9 20 6 6 21 hvcurveto
            70 20 62 -20 rlineto
            hintmask 0000110100000000
            -60 callgsubr
            hintmask 0000000000100000
            101 callsubr
            hintmask 0000000100000000
            71 callsubr
            hintmask 0000000010000000
            72 callgsubr
            hintmask 0000000001000000
            -36 callsubr
          </CharString>
          <CharString index="45">
            -82 callgsubr
            -67 callsubr
            return
          </CharString>
          <CharString index="46">
            -107 callsubr
            63 209 57 callgsubr
            hintmask 00001000
            70 callsubr
            hintmask 00000100
            13 156 callsubr
            -31 117 callsubr
            hintmask 00001000
            70 callgsubr
            hintmask 00000100
            26 33 25 -4 callgsubr
            hintmask 00001000
            38 callgsubr
            24 16 34 25 3 19 rrcurveto
            endchar
          </CharString>
          <CharString index="47">
            hlineto
            18 -74 callsubr
            return
          </CharString>
          <CharString index="48">
            rmoveto
            20 3 -14 7 callsubr
            -10 hvcurveto
            hintmask 0010000000000000
            54 callgsubr
            hintmask 0001000000000000
            -75 callsubr
            hintmask 0010000000000000
            54 callsubr
            hintmask 0001000000000000
            26 32 25 -4 callgsubr
            hintmask 0010000000000000
            -51 callsubr
          </CharString>
          <CharString index="49">
            rlineto
            -57 callgsubr
            return
          </CharString>
          <CharString index="50">
            -84 callsubr
            28 -10 callsubr
            return
          </CharString>
          <CharString index="51">
            -1 -37 -6 hvcurveto
            -38 -6 28 -1 20 hhcurveto
            289 46 callsubr
            endchar
          </CharString>
          <CharString index="52">
            36 6 hvcurveto
            return
          </CharString>
          <CharString index="53">
            23 4 -16 20 -23 hhcurveto
            -14 -10 -6 -14 -20 hvcurveto
            -54 -44 -14 -11 -19 -14 -3 -17 rlinecurve
            -20 -4 18 -26 20 hhcurveto
            13 18 12 10 13 hvcurveto
            54 43 19 13 16 15 2 16 rlinecurve
            return
          </CharString>
          <CharString index="54">
            515 37 rmoveto
            33 6 -19 5 -32 hhcurveto
            104 callsubr
            32 21 5 33 6 hvcurveto
            36 45 callgsubr
            -55 hlineto
            -44 -9 -15 -29 -14 hvcurveto
            -130 -266 -43 282 rlineto
            27 -7 -27 1 -16 hhcurveto
            -55 241 callsubr
            -33 -6 19 -5 32 hhcurveto
            -76 -461 106 callgsubr
            33 6 -19 5 -31 hhcurveto
            68 408 43 -265 rlineto
            -11 7 12 -8 14 hhcurveto
            15 19 9 17 12 hvcurveto
            127 258 -68 -408 106 callgsubr
            return
          </CharString>
          <CharString index="55">
            98 callsubr
            -110 -85 callsubr
            18 hhcurveto
            return
          </CharString>
          <CharString index="56">
            -14 12 17 -22 36 hhcurveto
            28 32 -50 callgsubr
          </CharString>
          <CharString index="57">
            rlineto
            47 hlineto
            16 32 92 callsubr
            -17 hhcurveto
            -158 19 callgsubr
            return
          </CharString>
          <CharString index="58">
            -34 callgsubr
            18 hhcurveto
            return
          </CharString>
          <CharString index="59">
            -19 callsubr
            -1 return
          </CharString>
          <CharString index="60">
            577 144 callsubr
            -177 109 callgsubr
            29 -1 17 hhcurveto
            73 hlineto
            -65 -392 rlineto
            -76 -13 -74 -4 -17 hhcurveto
            -7 -39 0 19 -23 hvcurveto
            4 5 3 7 2 12 rrcurveto
            28 5 -19 23 -29 hhcurveto
            -26 -28 -17 -37 -7 hvcurveto
            -65 -10 58 -50 103 hhcurveto
            91 92 56 93 15 hvcurveto
            66 398 rlineto
            22 hlineto
            19 30 1 37 6 hvcurveto
            return
          </CharString>
          <CharString index="61">
            488 114 rmoveto
            34 6 -35 1 -7 hhcurveto
            -19 -12 -2 -24 -13 hvcurveto
            -12 -7 -27 -42 -64 hhcurveto
            -78 -57 65 84 14 hvcurveto
            45 8 44 106 125 hhcurveto
            50 -1 rlineto
            -40 -5 19 -15 27 hhcurveto
            28 27 19 33 6 hvcurveto
            76 13 -106 3 -47 hhcurveto
            -173 -84 -137 -89 -15 hvcurveto
            return
          </CharString>
          <CharString index="62">
            29 4 -17 21 -29 hhcurveto
            -31 -23 -21 -29 -4 hvcurveto
            -45 -8 29 -43 52 hhcurveto
            100 71 133 11 6 hvcurveto
            222 439 rlineto
            24 hlineto
            18 111 callsubr
            return
          </CharString>
          <CharString index="63">
            3 -37 31 hhcurveto
            8 6 2 3 return
          </CharString>
          <CharString index="64">
            -87 callsubr
            hintmask 0000000010000000
            15 91 rlineto
            return
          </CharString>
          <CharString index="65">
            rmoveto
            29 callsubr
            -32 -6 57 callsubr
            6 hvcurveto
            endchar
          </CharString>
          <CharString index="66">
            -44 callsubr
            8 hvcurveto
            return
          </CharString>
          <CharString index="67">
            36 6 -5 12 return
          </CharString>
          <CharString index="68">
            hintmask 0110000000000000
            519 38 rmoveto
            205 callsubr
            -16 hhcurveto
            -36 102 callgsubr
            36 6 -6 12 -39 hhcurveto
            -71 hlineto
            -19 -30 -2 -36 -48 callsubr
            17 hhcurveto
            36 hlineto
            -33 -200 rlineto
            hintmask 1010000000000000
            -81 -14 -75 -11 -29 hhcurveto
            -68 3 28 28 5 hvcurveto
            44 263 77 callsubr
            -2 -36 58 callgsubr
            36 hlineto
            -40 -242 rlineto
            -99 -17 67 -26 76 hhcurveto
            37 40 9 22 37 hvcurveto
            hintmask 0100000000000000
            -24 3 20 -1 19 hhcurveto
            71 46 callsubr
            return
          </CharString>
          <CharString index="69">
            65 callgsubr
            hintmask 1001001100100000
            21 callsubr
            hintmask 0000000001000000
            130 116 65 86 14 hvcurveto
            hintmask 0110000000100000
            -33 callsubr
            hintmask 1111010110000000
            94 87 74 91 15 hvcurveto
            5 28 -3 27 -11 26 16 7 15 3 11 2 rrcurveto
            -26 5 22 -7 11 hhcurveto
            20 30 14 34 5 hvcurveto
            -210 -108 rmoveto
            -51 -8 -46 -40 -47 hhcurveto
            -48 -31 42 48 8 hvcurveto
            51 9 45 39 47 hhcurveto
            48 31 -42 -47 -8 hvcurveto
            48 -350 rmoveto
            -41 -7 -77 -36 -92 hhcurveto
            -92 -65 36 41 7 hvcurveto
            3 16 12 28 32 18 rrcurveto
            14 25 9 0 69 hhcurveto
            hintmask 0000000001000000
            167 callgsubr
            hintmask 0000100000000000
            return
          </CharString>
          <CharString index="70">
            hlineto
            -18 -29 -18 callsubr
            19 hhcurveto
            return
          </CharString>
          <CharString index="71">
            3 18 177 callsubr
            28 224 callgsubr
            4 26 rrcurveto
            endchar
          </CharString>
          <CharString index="72">
            594 573 rmoveto
            37 6 -28 -12 callgsubr
            -103 -53 callgsubr
            16 hlineto
            return
          </CharString>
          <CharString index="73">
            78 callsubr
            106 75 hstemhm
            122 94 -26 82 -56 94 -13 94 -82 82 -14 82 -15 83 -57 82 hintmask 0000000001010000
            527 178 rmoveto
            8 48 2 98 -78 68 69 37 19 45 5 29 rrcurveto
            hintmask 0011010010000000
            67 11 -73 47 -99 hhcurveto
            -65 -120 -26 -95 -16 hvcurveto
            -10 -60 rlineto
            -45 hlineto
            -19 -28 -1 -37 -7 hvcurveto
            hintmask 0110100000000000
            -36 -6 29 -10 callsubr
            45 152 callsubr
            -45 -49 callsubr
            81 hlineto
            38 11 10 38 6 hvcurveto
            hintmask 0001010001010000
            74 441 2 17 2 10 30 13 rlinecurve
            9 24 23 4 24 hhcurveto
            55 41 -19 -21 -3 hvcurveto
            -3 -18 -28 -36 -71 -10 rrcurveto
            hintmask 1010000100100000
            -46 -4 -20 -8 -5 -28 rrcurveto
            -5 -31 29 -6 0 vvcurveto
            125 -8 6 -123 -8 -52 rrcurveto
            -70 -12 -61 -39 -48 hhcurveto
            hintmask 0000010010000000
            -5 -5 1 1 -4 hvcurveto
            3 21 0 3 -5 10 rrcurveto
            11 -8 -12 8 -15 hhcurveto
            hintmask 0100100000000000
            -24 -27 -18 -31 -5 hvcurveto
            hintmask 1000001000100000
            -39 -7 28 -42 73 hhcurveto
            93 105 72 112 19 hvcurveto
            endchar
          </CharString>
          <CharString index="74">
            6 38 -10 52 -47 28 rrcurveto
            7 -12 -38 22 -90 hhcurveto
            -69 hlineto
            -18 -22 -5 18 -12 hvcurveto
            -7 11 2 19 0 vvcurveto
            3 2 6 3 7 vhcurveto
            -8 13 30 -13 37 hhcurveto
            return
          </CharString>
          <CharString index="75">
            28 callgsubr
            41 5 25 23 4 hvcurveto
            return
          </CharString>
          <CharString index="76">
            15 -20 20 hhcurveto
            13 8 6 7 9 hvcurveto
            return
          </CharString>
          <CharString index="77">
            126 callgsubr
            21 -21 56 -20 110 -20 140 callsubr
            hintmask 0010000000000100
            113 callgsubr
            hintmask 0010000000001000
            -46 hlineto
            hintmask 0001001100000010
            66 callsubr
            227 callgsubr
            159 callsubr
            hintmask 0000100000100000
            160 callgsubr
            hintmask 0000000000010000
            -22 -17 -19 -21 -3 hvcurveto
            hintmask 0000100000001000
            -19 -2 11 -16 20 hhcurveto
            hintmask 1010100001100100
            25 callsubr
            hintmask 0000010000000000
            48 285 rlineto
            hintmask 1000100001000000
            -28 callgsubr
            hintmask 0100000000000000
            80 callgsubr
            return
          </CharString>
          <CharString index="78">
            0 75 103 75 26 189 callsubr
            hstemhm
            252 70 -53 70 -65 70 109 70 -45 70 -43 70 hintmask 1010010100000000
            509 115 callgsubr
            -105 hlineto
            34 204 rlineto
            hintmask 0011000010000000
            105 hlineto
            17 -66 callsubr
            -105 hlineto
            30 182 rlineto
            97 hlineto
            hintmask 0000000001000000
            124 callgsubr
            hintmask 0001001010000000
            -57 callgsubr
            -274 240 callsubr
            hintmask 1101100000000000
            -5 -31 18 -6 17 -1 -170 -461 rcurveline
            -27 -22 -4 -34 113 callsubr
            69 hlineto
            18 111 callsubr
            6 32 -20 5 -22 1 38 103 rcurveline
            94 hlineto
            hintmask 1100010000000000
            -17 -103 -18 -1 -22 -5 -6 -31 rlinecurve
            166 callsubr
            189 hlineto
            38 11 10 38 6 hvcurveto
            -212 205 rmoveto
            -79 hlineto
            hintmask 0001100000000000
            104 283 rlineto
            hintmask 0101001000000000
            22 hlineto
            endchar
          </CharString>
          <CharString index="79">
            -16 -12 hhcurveto
            -5 -8 9 10 -9 hvcurveto
            return
          </CharString>
          <CharString index="80">
            197 callgsubr
            35 -20 131 -20 90 callgsubr
            hintmask 0101000000010000
            -25 callgsubr
            hintmask 1100000010100000
            52 callgsubr
            hintmask 0000010100000000
            85 callgsubr
            hintmask 0100001000000000
            54 329 rlineto
            33 hlineto
            hintmask 0000000100000000
            20 17 16 19 4 hvcurveto
            hintmask 0100001010000000
            29 callgsubr
            hintmask 1000010001000000
            14 callgsubr
            hintmask 0000000000100000
            54 327 rlineto
            hintmask 0000000000010000
            161 callgsubr
            hintmask 0010100000000000
            return
          </CharString>
          <CharString index="81">
            225 callsubr
            103 82 -21 146 190 callgsubr
            hintmask 0100000000010000
            617 574 rmoveto
            -95 callsubr
            hintmask 1000000101000000
            -44 callgsubr
            hintmask 0100001000000000
            54 325 rlineto
            21 hlineto
            18 31 1 37 6 hvcurveto
            -95 callsubr
            hintmask 1000010001000000
            -51 callgsubr
            hintmask 0100000000010000
            -11 callsubr
            hintmask 0011100010100000
            27 callgsubr
            return
          </CharString>
          <CharString index="82">
            -61 callgsubr
            -16 hlineto
            return
          </CharString>
          <CharString index="83">
            rmoveto
            52 9 -34 34 -70 hhcurveto
            -49 -53 -84 callgsubr
            return
          </CharString>
          <CharString index="84">
            68 callsubr
            -310 hlineto
            -14 -40 -1 -41 -7 hvcurveto
            -41 -7 40 -1 14 hhcurveto
            310 hlineto
            14 40 1 41 7 hvcurveto
            return
          </CharString>
          <CharString index="85">
            rmoveto
            23 4 -11 15 -25 hhcurveto
            -29 -8 -20 -14 -5 hvcurveto
            -14 -7 -62 0 -38 hhcurveto
            -39 -61 0 14 -1 hvcurveto
            14 -1 -2 20 -29 hhcurveto
            -24 -16 -15 -23 -4 hvcurveto
            -84 -14 110 -4 68 hhcurveto
            68 112 4 84 14 hvcurveto
            endchar
          </CharString>
          <CharString index="86">
            85 callsubr
            -151 -123 54 325 196 callgsubr
            -64 -37 callsubr
            40 202 callgsubr
            -40 -96 callgsubr
            28 -1 19 hhcurveto
            150 hlineto
            -61 callgsubr
            -40 hlineto
            11 68 80 64 80 -132 -32 -1 -17 185 callgsubr
            115 -77 callsubr
            return
          </CharString>
          <CharString index="87">
            36 callsubr
            27 164 35 callsubr
            -28 -58 callgsubr
            16 hhcurveto
            return
          </CharString>
          <CharString index="88">
            -84 callsubr
            30 return
          </CharString>
          <CharString index="89">
            -95 callgsubr
            27 -1 return
          </CharString>
          <CharString index="90">
            476 37 rmoveto
            -67 callsubr
            -119 hlineto
            81 488 19 callsubr
            return
          </CharString>
          <CharString index="91">
            -78 callgsubr
            hintmask 1110100000000000
            150 callsubr
            return
          </CharString>
          <CharString index="92">
            rlineto
            36 -7 -16 4 -30 hhcurveto
            -66 -37 callsubr
            17 hlineto
            return
          </CharString>
          <CharString index="93">
            -22 -4 -3 -26 40 hhcurveto
            return
          </CharString>
          <CharString index="94">
            hvcurveto
            -36 -6 return
          </CharString>
          <CharString index="95">
            hstemhm
            hintmask 11100000
            -105 callgsubr
            hintmask 00010000
            return
          </CharString>
          <CharString index="96">
            54 329 rlineto
            21 hlineto
            19 30 1 37 6 hvcurveto
            return
          </CharString>
          <CharString index="97">
            -1 18 hhcurveto
            return
          </CharString>
          <CharString index="98">
            cntrmask 11100000
            527 38 rmoveto
            36 6 -28 4 callgsubr
            -29 -14 3 3 -7 hvcurveto
            114 callgsubr
            72 12 -40 86 -146 hhcurveto
            -45 -104 -3 -76 -13 hvcurveto
            -34 -6 21 -18 27 hhcurveto
            17 35 10 43 8 hvcurveto
            0 33 3 16 66 42 -25 -59 -6 vhcurveto
            -174 -4 -128 -53 -16 -95 rrcurveto
            -71 -12 53 -68 105 hhcurveto
            35 60 7 28 51 hvcurveto
            5 -6 5 -4 6 -4 -40 -27 -38 -42 -7 -43 rrcurveto
            -46 -8 29 -55 67 hhcurveto
            39 43 27 34 31 hvcurveto
            11 11 1 22 -10 14 -16 23 -23 -21 96 callgsubr
            31 38 44 26 rrcurveto
            20 hlineto
            26 1 30 2 5 35 rrcurveto
            -165 100 rmoveto
            -3 -19 -3 -19 -36 -15 rrcurveto
            -16 -36 -42 0 -8 hhcurveto
            -55 -33 29 35 6 hvcurveto
            8 44 84 30 130 5 rrcurveto
            return
          </CharString>
          <CharString index="99">
            455 37 rmoveto
            -6 callsubr
            -97 hlineto
            return
          </CharString>
          <CharString index="100">
            -76 -461 rlineto
            return
          </CharString>
          <CharString index="101">
            37 45 callgsubr
            return
          </CharString>
          <CharString index="102">
            0 149 callsubr
            hstem
            105 83 118 83 81 83 vstem
            502 48 rmoveto
            4 25 rlineto
            17 3 3 31 -33 hhcurveto
            -30 -8 -23 -23 -4 hvcurveto
            -46 hlineto
            15 43 20 33 39 60 40 63 37 61 11 68 rrcurveto
            124 21 -86 95 -122 hhcurveto
            -122 -118 -95 -124 -21 hvcurveto
            -11 -70 18 -64 19 -65 18 -58 8 -32 2 -39 rrcurveto
            -46 hlineto
            23 2 0 23 -30 hhcurveto
            -33 -7 -31 -17 -3 hvcurveto
            -4 -25 rlineto
            -39 -6 7 -9 39 hhcurveto
            100 hlineto
            23 24 1 41 7 hvcurveto
            11 64 -18 70 -15 55 -17 64 -13 56 8 52 rrcurveto
            84 14 76 60 75 hhcurveto
            75 56 -60 -84 -14 hvcurveto
            -9 -56 -31 -52 -41 -69 -28 -47 -44 -73 -11 -64 rrcurveto
            -41 -7 25 -1 23 hhcurveto
            100 205 callgsubr
          </CharString>
          <CharString index="103">
            rmoveto
            3 20 -22 11 -30 12 -73 28 rcurveline
            -12 5 -6 0 -14 -5 -83 -28 rcurveline
            -35 -12 -25 -11 -3 -20 rrcurveto
            hintmask 0001000000000000
            -18 -3 5 -21 27 hhcurveto
            hintmask 0010010000000000
            9 20 6 6 21 hvcurveto
            70 20 62 -20 rlineto
            hintmask 0001101000000000
            -60 callgsubr
            hintmask 0000000001000000
            34 callgsubr
            hintmask 0000000010000000
            47 callgsubr
            hintmask 0000000100000000
            -3 -18 rlineto
            hintmask 0000001000000000
            71 callsubr
            hintmask 0000000100000000
            72 callgsubr
            hintmask 0000000010000000
            -36 callsubr
          </CharString>
          <CharString index="104">
            -19 -3 -31 callsubr
            return
          </CharString>
          <CharString index="105">
            503 37 rmoveto
            34 6 -22 4 -31 hhcurveto
            -112 281 173 180 rlineto
            38 22 4 34 6 hvcurveto
            36 6 -31 1 -17 hhcurveto
            -85 hlineto
            -18 176 callgsubr
            -5 -26 16 -8 15 -2 -221 -230 rcurveline
            38 229 rlineto
            return
          </CharString>
          <CharString index="106">
            -107 callsubr
            63 209 57 callgsubr
            hintmask 01000000
            70 callsubr
            hintmask 00100000
            13 156 callsubr
            -31 117 callsubr
            hintmask 01000000
            70 callgsubr
            hintmask 00100000
            26 33 25 -4 callgsubr
            hintmask 01000000
            38 callgsubr
            24 16 34 25 3 19 rrcurveto
            endchar
          </CharString>
          <CharString index="107">
            26 callgsubr
            12 2 18 8 15 hhcurveto
            15 14 -8 -12 -3 callgsubr
            -5 30 -33 51 hhcurveto
            51 42 33 35 5 hvcurveto
            endchar
          </CharString>
          <CharString index="108">
            -21 25 -32 hhcurveto
            return
          </CharString>
          <CharString index="109">
            rmoveto
            3 20 -22 11 -30 12 -73 28 rcurveline
            -12 5 -6 0 -14 -5 -83 -28 rcurveline
            -35 -12 -25 -11 -3 -20 rrcurveto
            hintmask 01000000
            -18 -3 5 -21 27 hhcurveto
            hintmask 10010000
            9 20 6 6 21 hvcurveto
            70 20 62 -20 rlineto
            hintmask 01101000
            -60 callgsubr
            hintmask 00000001
            34 callgsubr
            hintmask 00000010
            47 callgsubr
            hintmask 00000100
            -3 -18 rlineto
            hintmask 00001000
            71 callsubr
            hintmask 00000100
            72 callgsubr
            hintmask 00000010
            -36 callsubr
          </CharString>
          <CharString index="110">
            2 3 7 130 callgsubr
            return
          </CharString>
          <CharString index="111">
            rmoveto
            23 4 -11 15 -25 hhcurveto
            -29 -8 -20 -14 -6 hvcurveto
            -14 -6 -62 0 -38 hhcurveto
            -39 -61 0 14 -2 hvcurveto
            14 -2 20 -29 vhcurveto
            hintmask 11001000
            -24 -16 -15 -23 -4 hvcurveto
            -84 -14 110 -4 68 hhcurveto
            68 112 4 84 14 hvcurveto
            27 172 rmoveto
            20 4 49 callsubr
            hintmask 00010000
            136 callsubr
            hintmask 00101000
            87 callgsubr
            hintmask 01001000
            18 callgsubr
          </CharString>
          <CharString index="112">
            27 callsubr
            hstem
            54 69 vstem
            526 113 rmoveto
            23 4 -16 13 -17 hhcurveto
            -28 -10 -24 -6 -2 hvcurveto
            -31 -12 -16 -19 -19 hhcurveto
            -37 -27 51 66 2 hvcurveto
            143 hlineto
            41 8 13 -55 callsubr
            135 23 -41 74 -69 hhcurveto
            -49 -40 -36 -40 -30 hvcurveto
            31 -13 -30 45 -56 hhcurveto
            -81 -85 -94 -131 -21 hvcurveto
            -131 -22 53 -94 81 hhcurveto
            54 45 41 37 27 hvcurveto
            -36 15 32 -42 55 hhcurveto
            84 45 100 19 3 hvcurveto
            -45 147 rmoveto
            -117 hlineto
            61 20 36 48 30 hhcurveto
            20 20 -24 -85 -9 hvcurveto
            -200 -35 rmoveto
            -88 -15 -50 -68 -40 hhcurveto
            -40 -28 68 88 15 hvcurveto
            87 14 50 57 39 hhcurveto
            39 30 -58 -86 -14 hvcurveto
            endchar
          </CharString>
          <CharString index="113">
            -54 -10 -51 -9 -21 hhcurveto
            -67 7 46 21 4 hvcurveto
            23 callsubr
            return
          </CharString>
          <CharString index="114">
            19 -20 hhcurveto
            -13 -8 -5 -8 return
          </CharString>
          <CharString index="115">
            -10 callsubr
            116 -38 callgsubr
            return
          </CharString>
          <CharString index="116">
            -85 callsubr
            17 hhcurveto
            return
          </CharString>
          <CharString index="117">
            -103 callgsubr
            -43 192 rmoveto
            52 8 217 callsubr
            -49 -53 -33 -53 -10 hvcurveto
            -18 -3 11 -18 22 hhcurveto
            23 15 17 19 4 hvcurveto
            11 3 9 165 callgsubr
            hintmask 0000000010000000
            -48 -25 -32 137 callsubr
            hintmask 0000000100000000
            -3 -18 rlineto
            hintmask 0000001000000000
            71 callsubr
            hintmask 0000000100000000
            72 callgsubr
            hintmask 0000100010000000
            124 callsubr
            5 26 rrcurveto
            endchar
          </CharString>
          <CharString index="118">
            -68 callsubr
            endchar
          </CharString>
          <CharString index="119">
            hstemhm
            hintmask 11000000
            -102 callsubr
            hintmask 00100000
            return
          </CharString>
          <CharString index="120">
            486 114 rmoveto
            34 6 -35 1 -7 hhcurveto
            -22 -10 -4 -22 -12 hvcurveto
            -46 -28 -50 -8 -25 hhcurveto
            -67 -60 43 74 -6 hvcurveto
            281 hlineto
            25 22 0 44 7 hvcurveto
            115 20 -50 99 -131 hhcurveto
            -120 -115 -101 -124 -20 hvcurveto
            -19 -109 66 -94 107 -18 -33 -24 -18 -30 -7 -41 99 callgsubr
            30 106 callsubr
            -7 -9 -3 -6 235 callgsubr
            7 39 19 42 51 15 97 20 52 76 3 21 rrcurveto
            -62 146 rmoveto
            -241 hlineto
            63 27 60 46 62 hhcurveto
            46 50 -22 -87 -4 hvcurveto
            return
          </CharString>
          <CharString index="121">
            3 18 3 154 callgsubr
            4 26 rrcurveto
            endchar
          </CharString>
          <CharString index="122">
            rlineto
            36 6 -5 12 -40 hhcurveto
            -71 hlineto
            53 callgsubr
            return
          </CharString>
          <CharString index="123">
            91 15 74 35 46 hhcurveto
            47 7 -25 -53 -9 hvcurveto
            return
          </CharString>
          <CharString index="124">
            -16 -94 rlineto
            -19 -3 -4 -29 36 hhcurveto
            10 17 0 33 19 hvcurveto
            -31 41 49 -2 27 hhcurveto
            161 47 87 49 8 hvcurveto
            return
          </CharString>
          <CharString index="125">
            -80 callsubr
            hintmask 0000000100000000
            -14 callsubr
            return
          </CharString>
          <CharString index="126">
            -58 callsubr
            -154 hlineto
            return
          </CharString>
          <CharString index="127">
            97 callgsubr
            17 158 callsubr
            hstemhm
            121 119 -79 83 hintmask 00000100
            551 373 rmoveto
            22 4 -4 46 -88 hhcurveto
            -48 -61 -15 -52 -61 hvcurveto
            3 14 rlineto
            hintmask 00001000
            -57 callgsubr
            -107 hlineto
            hintmask 00010000
            148 callgsubr
            hintmask 00101001
            -70 callsubr
            hintmask 00000100
            14 86 67 88 108 3 rrcurveto
            return
          </CharString>
          <CharString index="128">
            575 386 -71 callgsubr
            return
          </CharString>
          <CharString index="129">
            0 75 164 75 222 75 hstem
            106 83 282 82 vstem
            553 425 rmoveto
            94 16 -60 92 -117 hhcurveto
            -218 -94 callgsubr
            -68 callgsubr
            125 hlineto
            18 194 callsubr
            -18 hhcurveto
            -21 hlineto
            27 164 rlineto
            114 hlineto
            118 89 91 95 16 hvcurveto
            -82 hmoveto
            -49 -8 -51 -62 -88 hhcurveto
            -95 hlineto
            37 222 rlineto
            95 hlineto
            88 30 -63 -48 -8 hvcurveto
            endchar
          </CharString>
          <CharString index="130">
            37 225 rlineto
            152 -9 callgsubr
            return
          </CharString>
          <CharString index="131">
            506 218 rmoveto
            127 22 -79 99 -113 hhcurveto
            -113 -111 -99 -127 -22 hvcurveto
            -18 -110 57 -85 86 -23 -31 -26 -27 -35 -6 -36 99 callgsubr
            30 hvcurveto
            11 11 0 27 -9 9 -11 6 -28 -4 191 callgsubr
            39 25 35 35 21 101 15 96 91 19 116 rrcurveto
            -81 7 rmoveto
            -86 -15 -68 -70 -68 hhcurveto
            -68 -46 70 86 15 hvcurveto
            84 14 70 60 65 hhcurveto
            66 49 -60 -84 -14 hvcurveto
            return
          </CharString>
          <CharString index="132">
            47 hlineto
            -35 -210 rlineto
            -45 -7 -50 -35 -55 hhcurveto
            -27 -18 2 9 -12 hvcurveto
            -9 7 -2 12 2 15 rrcurveto
            return
          </CharString>
          <CharString index="133">
            306 534 -98 callgsubr
            return
          </CharString>
          <CharString index="134">
            -6 41 callgsubr
            return
          </CharString>
          <CharString index="135">
            23 -27 -35 12 -38 hhcurveto
            -110 -114 -95 -129 -22 hvcurveto
            -125 -21 76 -98 107 hhcurveto
            49 41 20 25 33 hvcurveto
            return
          </CharString>
          <CharString index="136">
            31 67 callsubr
            -31 -5 hvcurveto
            return
          </CharString>
          <CharString index="137">
            473 131 rmoveto
            21 3 4 24 -42 hhcurveto
            -39 -5 -24 -20 -3 hvcurveto
            return
          </CharString>
          <CharString index="138">
            -37 callsubr
            16 hlineto
            return
          </CharString>
          <CharString index="139">
            23 135 rlineto
            19 3 4 29 -36 hhcurveto
            -19 -11 -12 -9 -8 hvcurveto
            -2 -3 -1 -2 -10 -17 return
          </CharString>
          <CharString index="140">
            -6 75 109 74 117 75 hstem
            504 219 rmoveto
            123 20 -85 102 -130 hhcurveto
            -136 -63 -94 -26 -4 hvcurveto
            -34 -6 35 -1 7 hhcurveto
            22 10 4 22 13 hvcurveto
            46 27 51 8 25 hhcurveto
            67 59 -43 -74 6 hvcurveto
            -281 hlineto
            -25 -22 0 -44 -7 hvcurveto
            -115 -19 49 -99 131 hhcurveto
            120 115 101 124 21 hvcurveto
            -95 -41 rmoveto
            -63 -27 -59 -46 -62 hhcurveto
            -46 -51 22 87 4 hvcurveto
            endchar
          </CharString>
          <CharString index="141">
            30 callsubr
            hintmask 1100100100000000
            6 callsubr
            hintmask 0100010000000000
            -152 hlineto
            hintmask 0000001000000000
            44 callgsubr
            hintmask 0100010000000000
            31 callgsubr
            return
          </CharString>
          <CharString index="142">
            -58 callsubr
            -71 hlineto
            -19 return
          </CharString>
          <CharString index="143">
            17 callgsubr
            -55 -45 -23 -19 -27 hvcurveto
            return
          </CharString>
          <CharString index="144">
            0 75 193 216 callsubr
            hstemhm
            97 83 -7 82 return
          </CharString>
          <CharString index="145">
            -77 callsubr
            37 6 return
          </CharString>
          <CharString index="146">
            -27 -12 callgsubr
            return
          </CharString>
          <CharString index="147">
            512 48 rmoveto
            14 86 rlineto
            return
          </CharString>
          <CharString index="148">
            583 99 callsubr
            hintmask 01100010
            -49 -54 -84 callgsubr
            33 12 -12 -6 -11 hvcurveto
            hintmask 00000100
            47 callgsubr
            hintmask 10001000
            81 callsubr
            hintmask 00010000
            19 18 17 18 3 hvcurveto
            hintmask 00000110
            14 callsubr
          </CharString>
          <CharString index="149">
            -51 -9 -53 -77 -70 hhcurveto
            -66 -43 66 82 13 hvcurveto
            89 15 74 60 65 hhcurveto
            58 36 -50 -50 -9 hvcurveto
            return
          </CharString>
          <CharString index="150">
            -14 callsubr
            hintmask 0000000000100000
            48 callgsubr
            return
          </CharString>
          <CharString index="151">
            hstemhm
            161 83 2 callgsubr
            return
          </CharString>
          <CharString index="152">
            0 60 callsubr
            return
          </CharString>
          <CharString index="153">
            hlineto
            19 28 1 37 6 hvcurveto
            return
          </CharString>
          <CharString index="154">
            19 119 99 103 87 -223 -16 -1 -19 -7 -5 -28 rlinecurve
            166 callsubr
            73 -77 callsubr
            return
          </CharString>
          <CharString index="155">
            23 9 callgsubr
            return
          </CharString>
          <CharString index="156">
            -15 7 callsubr
            -9 hvcurveto
            return
          </CharString>
          <CharString index="157">
            446 146 rmoveto
            33 27 -21 29 -7 11 -79 93 rcurveline
            108 92 11 11 32 29 -24 27 rlinecurve
            -23 29 -33 -27 -13 -9 -107 -93 rcurveline
            -77 94 -10 9 -25 26 -31 -28 rlinecurve
            -33 -27 21 -29 8 -11 78 -93 rcurveline
            -108 -92 -11 -11 -32 -29 25 -27 rlinecurve
            22 -29 33 27 13 9 107 93 rcurveline
            78 -94 9 -9 25 -26 31 28 rlinecurve
            return
          </CharString>
          <CharString index="158">
            93 callgsubr
            16 callsubr
            return
          </CharString>
          <CharString index="159">
            26 callgsubr
            13 2 return
          </CharString>
          <CharString index="160">
            -24 -4 20 -18 26 hhcurveto
            26 26 18 31 5 hvcurveto
            return
          </CharString>
          <CharString index="161">
            -19 -3 14 -20 20 hhcurveto
            13 8 6 7 10 hvcurveto
            return
          </CharString>
          <CharString index="162">
            75 86 75 387 -20 return
          </CharString>
          <CharString index="163">
            -176 -21 302 -20 hstem
            409 80 callsubr
            -131 198 -15 callgsubr
            endchar
          </CharString>
          <CharString index="164">
            21 -25 32 hhcurveto
            32 29 25 32 return
          </CharString>
          <CharString index="165">
            -6 21 -25 32 hhcurveto
            32 29 25 return
          </CharString>
          <CharString index="166">
            2 13 rlinecurve
            endchar
          </CharString>
          <CharString index="167">
            75 461 75 return
          </CharString>
          <CharString index="168">
            118 rmoveto
            3 20 -8 8 -6 7 -151 153 rcurveline
            202 153 9 7 10 8 3 20 rlinecurve
            26 5 -13 13 -14 hhcurveto
            -7 -3 -1 -9 -14 hvcurveto
            -240 -182 -8 -7 -11 -9 -3 -19 rlinecurve
            -2 -14 4 -12 6 -7 182 -183 rcurveline
            -10 10 3 -1 7 hhcurveto
            14 17 13 26 5 hvcurveto
            return
          </CharString>
          <CharString index="169">
            363 113 203 -20 hstem
            257 132 vstem
            457 640 rmoveto
            22 3 -18 17 -17 hhcurveto
            -25 -121 -69 -129 -22 hvcurveto
            -81 -13 35 -37 43 hhcurveto
            37 25 29 27 5 hvcurveto
            31 5 -19 26 -34 hhcurveto
            -6 0 -1 -1 -4 hvcurveto
            8 48 29 51 50 29 22 12 14 8 3 18 rrcurveto
            endchar
          </CharString>
          <CharString index="170">
            -6 82 callgsubr
            return
          </CharString>
          <CharString index="171">
            37 -2 19 -13 -3 -16 rrcurveto
            -32 -5 -92 0 -34 hhcurveto
            -43 -24 -3 -35 -6 hvcurveto
            -28 -4 17 -10 19 hhcurveto
            return
          </CharString>
          <CharString index="172">
            12 71 -58 callsubr
            return
          </CharString>
          <CharString index="173">
            47 283 47 15 40 37 9 50 rlinecurve
            32 5 -7 40 -42 hhcurveto
            return
          </CharString>
          <CharString index="174">
            5 83 callgsubr
            return
          </CharString>
          <CharString index="175">
            rmoveto
            41 7 -40 1 -14 hhcurveto
            return
          </CharString>
          <CharString index="176">
            -38 -7 -16 -24 -10 hhcurveto
            -10 -8 24 38 7 hvcurveto
            37 6 16 24 10 hhcurveto
            10 8 -24 -37 -6 hvcurveto
            return
          </CharString>
          <CharString index="177">
            118 callsubr
            -7 9 10 -10 hvcurveto
            return
          </CharString>
          <CharString index="178">
            -18 -3 12 -17 20 hhcurveto
            return
          </CharString>
          <CharString index="179">
            111 665 rlineto
            14 3 5 40 -41 hhcurveto
            -41 -7 -40 -14 -3 hvcurveto
            -111 -665 84 callsubr
            return
          </CharString>
          <CharString index="180">
            37 callsubr
            -19 82 return
          </CharString>
          <CharString index="181">
            69 callgsubr
            17 17 return
          </CharString>
          <CharString index="182">
            75 204 189 callsubr
            return
          </CharString>
          <CharString index="183">
            25 32 5 hvcurveto
            return
          </CharString>
          <CharString index="184">
            35 callsubr
            -29 return
          </CharString>
          <CharString index="185">
            -6 75 -69 102 callsubr
            return
          </CharString>
          <CharString index="186">
            -91 callgsubr
            hintmask 00010100
            -29 -5 19 -23 29 hhcurveto
            hintmask 00000010
            98 callgsubr
          </CharString>
          <CharString index="187">
            43 -15 callgsubr
            return
          </CharString>
          <CharString index="188">
            -3 -18 rlineto
            -18 -3 13 -17 20 hhcurveto
            return
          </CharString>
          <CharString index="189">
            522 305 rmoveto
            290 48 -18 27 -186 hhcurveto
            -186 -28 -26 -291 -48 hvcurveto
            -43 -260 11 -47 136 -8 -27 -25 -21 -31 -5 -31 192 callsubr
            -1 27 -8 9 rrcurveto
            return
          </CharString>
          <CharString index="190">
            133 callsubr
            -54 83 return
          </CharString>
          <CharString index="191">
            rlineto
            -14 -2 -6 -40 41 hhcurveto
            41 8 40 14 2 hvcurveto
            return
          </CharString>
          <CharString index="192">
            -36 -6 28 -10 callsubr
            17 hlineto
            return
          </CharString>
          <CharString index="193">
            -31 -182 rlineto
            -37 hlineto
            -12 -16 -1 -23 -4 hvcurveto
            -21 -3 18 -1 10 hhcurveto
            122 hlineto
            10 18 1 21 3 hvcurveto
            return
          </CharString>
          <CharString index="194">
            -121 -20 78 -103 127 hhcurveto
            143 51 103 17 3 hvcurveto
            return
          </CharString>
          <CharString index="195">
            83 -71 83 -45 83 -71 83 hintmask 0000000000100000
            40 callsubr
            hintmask 0000000000001000
            48 callsubr
            return
          </CharString>
          <CharString index="196">
            96 rmoveto
            22 4 -15 20 -24 hhcurveto
            -27 -12 -21 -16 -9 hvcurveto
            -378 -670 -5 -11 -3 -5 -2 -8 rlinecurve
            -23 -3 15 -19 23 hhcurveto
            28 12 20 13 7 hvcurveto
            379 674 6 11 3 5 1 8 rlinecurve
            return
          </CharString>
          <CharString index="197">
            -41 -5 -24 -24 -4 hvcurveto
            -10 -62 rlineto
            -245 hlineto
            return
          </CharString>
          <CharString index="198">
            -6 -29 callgsubr
            64 callgsubr
            return
          </CharString>
          <CharString index="199">
            -82 callgsubr
            37 6 -30 1 return
          </CharString>
          <CharString index="200">
            hstemhm
            125 114 -78 83 hintmask 00001000
            551 373 rmoveto
            22 4 -4 46 -88 hhcurveto
            -48 -61 -15 -52 -61 hvcurveto
            3 14 rlineto
            hintmask 00010000
            -57 callgsubr
            -107 hlineto
            hintmask 00100000
            148 callgsubr
            return
          </CharString>
          <CharString index="201">
            -14 11 18 -22 36 hhcurveto
            28 return
          </CharString>
          <CharString index="202">
            -20 44 callsubr
            return
          </CharString>
          <CharString index="203">
            -6 75 300 75 return
          </CharString>
          <CharString index="204">
            -29 -1 -36 -6 hvcurveto
            return
          </CharString>
          <CharString index="205">
            -47 -286 rlineto
            return
          </CharString>
          <CharString index="206">
            rmoveto
            52 9 217 callsubr
            return
          </CharString>
          <CharString index="207">
            135 callsubr
            -45 83 -71 83 return
          </CharString>
          <CharString index="208">
            34 callgsubr
            hintmask 0000000001000000
            47 callgsubr
            hintmask 0000000010000000
            -3 -18 rlineto
            return
          </CharString>
          <CharString index="209">
            75 286 75 return
          </CharString>
          <CharString index="210">
            400 556 5 6 10 20 2 8 rlinecurve
            endchar
          </CharString>
          <CharString index="211">
            76 461 rlineto
            return
          </CharString>
          <CharString index="212">
            506 196 rmoveto
            115 19 -74 90 -111 hhcurveto
            -47 -49 -13 -32 -47 hvcurveto
            120 39 95 71 79 hhcurveto
            21 13 -5 -4 7 hvcurveto
            -5 -6 -3 -7 -3 -14 rrcurveto
            return
          </CharString>
          <CharString index="213">
            hvcurveto
            11 11 1 22 -10 14 -16 23 -23 187 callgsubr
            return
          </CharString>
          <CharString index="214">
            -20 65 callgsubr
            return
          </CharString>
          <CharString index="215">
            72 -31 70 -70 72 -69 70 19 74 return
          </CharString>
          <CharString index="216">
            -222 66 -66 138 445 75 return
          </CharString>
          <CharString index="217">
            -55 67 hhcurveto
            39 44 27 34 return
          </CharString>
          <CharString index="218">
            29 -82 callgsubr
            return
          </CharString>
          <CharString index="219">
            138 hstem
            255 137 vstem
            392 366 rmoveto
            41 236 callgsubr
            -35 -34 -6 hvcurveto
            -40 -6 28 -29 35 hhcurveto
            42 32 34 34 6 hvcurveto
            -50 return
          </CharString>
          <CharString index="220">
            -6 147 callsubr
            return
          </CharString>
          <CharString index="221">
            83 -33 83 hintmask 00000100
            491 48 rmoveto
            15 89 rlineto
            hintmask 00000010
            48 callsubr
            return
          </CharString>
          <CharString index="222">
            73 58 78 81 14 hvcurveto
            -332 -53 rmoveto
            -17 -16 -31 -5 -28 hhcurveto
            -9 -8 6 9 2 hvcurveto
            15 2 26 0 21 hhcurveto
            15 14 -3 -5 12 hvcurveto
            endchar
          </CharString>
          <CharString index="223">
            83 -48 83 hintmask 10000001
            519 37 rmoveto
            -67 callsubr
            hintmask 10100010
            17 callgsubr
            -56 -44 -23 -19 -27 hvcurveto
            return
          </CharString>
          <CharString index="224">
            -16 -18 -26 hvcurveto
            -25 -16 -33 -24 -3 -20 rrcurveto
            return
          </CharString>
          <CharString index="225">
            -25 -32 -26 -16 -12 hhcurveto
            -5 return
          </CharString>
          <CharString index="226">
            -11 149 callsubr
            return
          </CharString>
          <CharString index="227">
            98 callsubr
            -36 -20 -5 -33 182 callgsubr
            85 hlineto
            18 59 callgsubr
            33 6 -15 5 -36 hhcurveto
            27 167 rlineto
            return
          </CharString>
          <CharString index="228">
            -21 146 -20 return
          </CharString>
          <CharString index="229">
            rmoveto
            38 6 -26 1 -20 hhcurveto
            -114 206 callsubr
            113 46 callsubr
            endchar
          </CharString>
          <CharString index="230">
            rmoveto
            38 6 -27 1 -20 hhcurveto
            -114 209 callgsubr
            113 hlineto
            19 28 1 37 7 hvcurveto
            endchar
          </CharString>
          <CharString index="231">
            3 18 2 154 callgsubr
            return
          </CharString>
          <CharString index="232">
            29 hhcurveto
            110 115 96 128 21 hvcurveto
            -82 hmoveto
            return
          </CharString>
          <CharString index="233">
            526 218 rmoveto
            125 21 -74 98 -107 hhcurveto
            -43 return
          </CharString>
          <CharString index="234">
            70 39 167 callsubr
            -51 70 return
          </CharString>
          <CharString index="235">
            hstemhm
            234 83 -7 83 return
          </CharString>
          <CharString index="236">
            hvcurveto
            -1 49 11 66 9 52 9 54 12 75 18 46 rrcurveto
            50 20 23 17 84 hhcurveto
            81 24 -15 -59 hvcurveto
            1 -49 -11 -66 -9 -52 rrcurveto
            return
          </CharString>
          <CharString index="237">
            14 -16 7 -35 -27 -164 rrcurveto
            -63 240 rmoveto
            -223 -456 rlineto
            return
          </CharString>
          <CharString index="238">
            27 callsubr
            66 -21 return
          </CharString>
          <CharString index="239">
            70 -70 72 -31 70 -67 70 return
          </CharString>
          <CharString index="240">
            hstemhm
            107 83 -29 83 return
          </CharString>
          <CharString index="241">
            110 113 85 122 21 hvcurveto
            -82 hmoveto
            -79 -13 -70 -53 -66 hhcurveto
            -60 -28 46 56 -8 hvcurveto
            -4 22 4 25 1 11 rrcurveto
            return
          </CharString>
          <CharString index="242">
            120 callgsubr
            133 129 callgsubr
            return
          </CharString>
          <CharString index="243">
            -25 -32 -26 -28 callsubr
            return
          </CharString>
          <CharString index="244">
            -28 -8 -46 rrcurveto
            return
          </CharString>
          <CharString index="245">
            444 235 rmoveto
            84 14 -58 59 -73 hhcurveto
            -87 -68 -70 -71 -11 hvcurveto
            -85 -15 59 -58 73 hhcurveto
            87 67 70 71 12 hvcurveto
            return
          </CharString>
          <CharString index="246">
            -67 callgsubr
            endchar
          </CharString>
          <CharString index="247">
            hstemhm
            111 83 66 118 callgsubr
            return
          </CharString>
          <CharString index="248">
            497 rmoveto
            -37 -6 -16 -25 -10 hhcurveto
            -10 -8 25 37 6 hvcurveto
            35 6 16 27 11 hhcurveto
            11 6 -27 -35 -6 hvcurveto
            return
          </CharString>
          <CharString index="249">
            83 callsubr
            -41 104 68 83 -60 104 -73 83 return
          </CharString>
          <CharString index="250">
            75 253 75 -28 75 hstemhm
            76 75 -28 75 return
          </CharString>
          <CharString index="251">
            574 rmoveto
            36 6 -30 4 callgsubr
            return
          </CharString>
          <CharString index="252">
            -20 92 callgsubr
            return
          </CharString>
          <CharString index="253">
            -7 28 -29 35 hhcurveto
            42 33 return
          </CharString>
          <CharString index="254">
            -13 callsubr
            29 -10 callsubr
            return
          </CharString>
          <CharString index="255">
            205 callsubr
            -17 hhcurveto
            return
          </CharString>
          <CharString index="256">
            75 472 75 return
          </CharString>
          <CharString index="257">
            32 193 rlineto
            return
          </CharString>
          <CharString index="258">
            121 callsubr
            hstemhm
            return
          </CharString>
          <CharString index="259">
            hlineto
            98 callsubr
            return
          </CharString>
          <CharString index="260">
            -8 -3 -7 235 callgsubr
            return
          </CharString>
          <CharString index="261">
            -77 callsubr
            endchar
          </CharString>
          <CharString index="262">
            75 291 75 95 75 return
          </CharString>
          <CharString index="263">
            -11 -18 22 -36 hhcurveto
            -28 return
          </CharString>
          <CharString index="264">
            82 0 82 hintmask 0000000010000000
            30 callsubr
            return
          </CharString>
          <CharString index="265">
            75 249 75 -38 75 -70 75 return
          </CharString>
          <CharString index="266">
            -2 -17 5 -15 10 -11 rrcurveto
            return
          </CharString>
          <CharString index="267">
            187 callsubr
            37 6 return
          </CharString>
          <CharString index="268">
            176 callsubr
            99 83 return
          </CharString>
          <CharString index="269">
            -30 -2 -35 -5 hvcurveto
            return
          </CharString>
          <CharString index="270">
            79 -25 79 hstemhm
            return
          </CharString>
          <CharString index="271">
            75 292 75 hstemhm
            207 188 callsubr
            return
          </CharString>
          <CharString index="272">
            hstemhm
            126 78 220 78 -65 78 return
          </CharString>
          <CharString index="273">
            -37 -6 29 -1 19 hhcurveto
            return
          </CharString>
          <CharString index="274">
            70 -29 70 -67 70 return
          </CharString>
          <CharString index="275">
            rcurveline
            14 -16 -8 6 -14 hhcurveto
            -23 -22 -20 -23 -4 hvcurveto
            -3 -16 11 -15 15 -13 40 return
          </CharString>
          <CharString index="276">
            -92 -15 -14 -19 -43 hhcurveto
            -103 10 59 191 31 hvcurveto
            181 31 8 52 101 hhcurveto
            return
          </CharString>
          <CharString index="277">
            22 -3 -19 4 callgsubr
            -31 hlineto
            -18 -31 -2 -35 -5 hvcurveto
            -33 -6 18 -5 36 hhcurveto
            return
          </CharString>
          <CharString index="278">
            2 11 -2 8 -2 6 rrcurveto
            24 34 60 0 8 hhcurveto
            61 41 -31 -40 -7 hvcurveto
            return
          </CharString>
          <CharString index="279">
            -23 -3 0 1 -12 hvcurveto
            223 456 rlineto
            return
          </CharString>
          <CharString index="280">
            75 -69 241 callgsubr
            70 82 return
          </CharString>
          <CharString index="281">
            226 callsubr
            rrcurveto
            endchar
          </CharString>
          <CharString index="282">
            102 callsubr
            -70 75 hstemhm
            return
          </CharString>
          <CharString index="283">
            83 -7 83 -76 83 return
          </CharString>
          <CharString index="284">
            2 13 15 12 return
          </CharString>
          <CharString index="285">
            -6 75 -69 75 return
          </CharString>
          <CharString index="286">
            28 27 23 27 5 hvcurveto
            94 15 -73 70 -97 hhcurveto
            -102 -96 -82 -101 -17 hvcurveto
            return
          </CharString>
          <CharString index="287">
            -67 callsubr
            -16 hlineto
            return
          </CharString>
          <CharString index="288">
            195 callsubr
            -5 return
          </CharString>
          <CharString index="289">
            -84 callsubr
            29 -1 return
          </CharString>
          <CharString index="290">
            141 4 104 17 hvcurveto
            return
          </CharString>
          <CharString index="291">
            37 201 callgsubr
            return
          </CharString>
          <CharString index="292">
            86 callgsubr
            73 -21 return
          </CharString>
          <CharString index="293">
            rmoveto
            40 7 -41 2 -16 hhcurveto
            -338 hlineto
            return
          </CharString>
          <CharString index="294">
            31 -82 callgsubr
            return
          </CharString>
          <CharString index="295">
            83 -70 83 -71 83 return
          </CharString>
          <CharString index="296">
            75 182 75 return
          </CharString>
          <CharString index="297">
            -3 -17 -4 -28 -14 -58 -75 -50 rlinecurve
            -32 -19 -48 -31 -10 -59 rrcurveto
            return
          </CharString>
          <CharString index="298">
            -21 152 -20 return
          </CharString>
          <CharString index="299">
            181 callgsubr
            199 callgsubr
            return
          </CharString>
          <CharString index="300">
            103 92 callgsubr
            return
          </CharString>
          <CharString index="301">
            -64 callsubr
            37 6 -29 1 return
          </CharString>
          <CharString index="302">
            -32 -29 -25 -31 -5 hvcurveto
            -32 return
          </CharString>
          <CharString index="303">
            rlinecurve
            -36 -6 29 -10 callsubr
            return
          </CharString>
          <CharString index="304">
            hhcurveto
            39 44 27 34 31 hvcurveto
            return
          </CharString>
          <CharString index="305">
            96 callsubr
            66 -21 return
          </CharString>
          <CharString index="306">
            7 1 3 22 -18 hhcurveto
            return
          </CharString>
          <CharString index="307">
            23 242 callgsubr
            return
          </CharString>
          <CharString index="308" raw="1">
            85a88a9c 1b0b  
          </CharString>
          <CharString index="309">
            -29 -5 19 -23 29 hhcurveto
            hintmask 00000100
            29 27 23 29 5 hvcurveto
            return
          </CharString>
          <CharString index="310">
            -75 132 hhcurveto
            132 145 125 198 33 hvcurveto
            return
          </CharString>
          <CharString index="311">
            16 2 18 20 22 hhcurveto
            23 10 -19 -17 -3 hvcurveto
            endchar
          </CharString>
          <CharString index="312">
            36 6 -29 1 return
          </CharString>
          <CharString index="313">
            hlineto
            -19 -29 -1 -37 -6 hvcurveto
            -38 -6 28 -1 20 hhcurveto
            return
          </CharString>
          <CharString index="314">
            17 11 9 25 -9 16 rlinecurve
            -8 16 -22 5 -18 -11 return
          </CharString>
          <CharString index="315">
            64 callgsubr
            45 hlineto
            91 37 -60 -54 -9 hvcurveto
            -56 return
          </CharString>
          <CharString index="316">
            hlineto
            21 20 17 21 3 hvcurveto
            21 4 -14 17 -21 hhcurveto
            return
          </CharString>
          <CharString index="317">
            -112 -1 -5 0 vvcurveto
            -22 -4 14 -20 25 hhcurveto
            35 return
          </CharString>
          <CharString index="318">
            rlineto
            22 4 1 18 -27 hhcurveto
            -26 -6 -19 -21 -3 hvcurveto
            return
          </CharString>
          <CharString index="319">
            hvcurveto
            -115 -19 74 -90 111 hhcurveto
            47 49 13 32 return
          </CharString>
          <CharString index="320">
            232 callgsubr
            endchar
          </CharString>
          <CharString index="321">
            hstemhm
            76 75 -28 75 211 75 return
          </CharString>
          <CharString index="322">
            -60 -21 773 -20 return
          </CharString>
          <CharString index="323">
            75 193 75 return
          </CharString>
          <CharString index="324">
            -33 34 -70 hhcurveto
            return
          </CharString>
          <CharString index="325">
            -32 -29 -25 -32 -6 hvcurveto
            -32 -5 21 -24 32 hhcurveto
            return
          </CharString>
          <CharString index="326">
            -17 -3 -16 -19 -23 hhcurveto
            -22 -11 20 16 3 hvcurveto
            return
          </CharString>
          <CharString index="327">
            -81 76 123 76 222 76 124 76 hstem
            return
          </CharString>
          <CharString index="328">
            183 callsubr
            6 37 -17 43 -58 18 return
          </CharString>
          <CharString index="329">
            28 -26 17 26 19 16 27 4 25 rrcurveto
            39 7 return
          </CharString>
          <CharString index="330">
            27 34 31 hvcurveto
            11 11 return
          </CharString>
          <CharString index="331">
            31 5 1 callsubr
            return
          </CharString>
          <CharString index="332">
            119 callsubr
            52 return
          </CharString>
          <CharString index="333">
            30 13 7 15 2 13 return
          </CharString>
          <CharString index="334">
            -23 -4 16 -19 23 hhcurveto
            return
          </CharString>
          <CharString index="335">
            100 -21 454 -20 hstem
            return
          </CharString>
          <CharString index="336">
            hhcurveto
            -112 hlineto
            return
          </CharString>
          <CharString index="337">
            -52 -70 -12 hvcurveto
            -38 -6 26 -16 23 hhcurveto
            24 return
          </CharString>
          <CharString index="338">
            0 42 65 43 71 43 113 44 65 41 return
          </CharString>
          <CharString index="339">
            17 54 hhcurveto
            75 30 -68 -59 -10 hvcurveto
            -74 -12 return
          </CharString>
          <CharString index="340">
            rcurveline
            -21 17 -17 21 19 15 14 18 3 vhcurveto
            return
          </CharString>
          <CharString index="341">
            95 callgsubr
            76 82 callgsubr
            return
          </CharString>
          <CharString index="342">
            hstemhm
            106 83 -29 83 -61 83 return
          </CharString>
          <CharString index="343">
            103 hstemhm
            232 104 91 104 return
          </CharString>
          <CharString index="344">
            -11 75 19 75 378 75 return
          </CharString>
          <CharString index="345">
            111 callsubr
            37 7 return
          </CharString>
          <CharString index="346">
            75 274 75 274 75 return
          </CharString>
          <CharString index="347">
            hlineto
            -18 -28 -1 -36 -6 hvcurveto
            return
          </CharString>
          <CharString index="348">
            hlineto
            -18 97 callsubr
            return
          </CharString>
          <CharString index="349">
            78 10 78 -40 79 -39 163 callsubr
            return
          </CharString>
          <CharString index="350">
            hstemhm
            118 83 -7 83 60 83 9 83 return
          </CharString>
          <CharString index="351">
            -1 -19 -5 -6 -32 rlinecurve
            -36 -6 28 -1 return
          </CharString>
          <CharString index="352">
            -188 77 111 60 callsubr
            hstemhm
            return
          </CharString>
          <CharString index="353">
            hvcurveto
            hintmask 0001000000000000
            return
          </CharString>
        <CharString name=".notdef">
          173 endchar
        </CharString>
        <CharString name="A">
          75 callgsubr
          hstem
          -107 callgsubr
          endchar
        </CharString>
        <CharString name="AE">
          -29 callsubr
        </CharString>
        <CharString name="AE.dup">
          -29 callsubr
        </CharString>
        <CharString name="AEacute">
          0 75 103 75 26 189 callsubr
          83 151 callsubr
          252 70 -53 70 -65 70 109 70 -45 70 -43 70 hintmask 1010000101000000
          509 115 callgsubr
          -105 hlineto
          34 204 rlineto
          hintmask 0011000000100000
          105 hlineto
          17 -66 callsubr
          -105 hlineto
          30 182 rlineto
          97 hlineto
          hintmask 0000000000010000
          124 callgsubr
          hintmask 0001000010100000
          -57 callgsubr
          -274 240 callsubr
          hintmask 1101001000000000
          -5 -31 18 -6 17 -1 -170 -461 rcurveline
          -27 -22 -4 -34 113 callsubr
          69 hlineto
          18 111 callsubr
          6 32 -20 5 -22 1 38 103 rcurveline
          94 hlineto
          hintmask 1100000100000000
          -17 -103 -18 -1 -22 -5 -6 -31 rlinecurve
          166 callsubr
          189 hlineto
          38 11 10 38 6 hvcurveto
          -212 205 rmoveto
          -79 hlineto
          hintmask 0001001000000000
          104 283 rlineto
          hintmask 0101000010000000
          22 hlineto
          hintmask 0000110000000000
          159 241 -104 callsubr
        </CharString>
        <CharString name="Aacute">
          75 callgsubr
          91 -21 146 -87 callgsubr
          158 281 -104 callsubr
        </CharString>
        <CharString name="Abreve">
          75 callgsubr
          70 78 48 -87 callgsubr
          224 265 -90 callgsubr
        </CharString>
        <CharString name="Abreveacute">
          75 callgsubr
          70 78 214 -87 callgsubr
          224 265 -103 callgsubr
          -41 162 -101 callgsubr
          226 callsubr
          rlinecurve
          endchar
        </CharString>
        <CharString name="Abrevedotbelow">
          95 callgsubr
          82 55 callsubr
          70 78 48 226 callgsubr
          hintmask 01111110
          -107 callgsubr
          224 265 -103 callgsubr
          hintmask 10000010
          -272 -899 -103 callsubr
        </CharString>
        <CharString name="Abrevegrave">
          75 callgsubr
          70 78 48 -87 callgsubr
          224 265 -103 callgsubr
          -51 104 rmoveto
          -9 -1 -16 -37 -31 hhcurveto
          -8 -5 2 3 -7 hvcurveto
          -119 -63 callgsubr
        </CharString>
        <CharString name="Abrevehookabove">
          75 callgsubr
          70 78 140 78 0 70 hstemhm
          319 167 callsubr
          hintmask 1110000000000000
          -107 callgsubr
          hintmask 0001011000000000
          224 265 10 callsubr
        </CharString>
        <CharString name="Abrevetilde">
          75 callgsubr
          70 78 10 78 -40 79 -39 79 -25 79 -104 callgsubr
          hintmask 00010100
          224 265 5 callgsubr
        </CharString>
        <CharString name="Acaron">
          75 callgsubr
          174 -20 -36 callgsubr
          190 242 -100 callgsubr
        </CharString>
        <CharString name="Acircumflex">
          75 callgsubr
          81 -21 -36 callgsubr
          184 206 -107 callsubr
          endchar
        </CharString>
        <CharString name="Acircumflexacute">
          75 callgsubr
          81 -21 280 -87 callgsubr
          184 206 -107 callsubr
          -6 199 -69 callgsubr
          226 callsubr
          rlinecurve
          endchar
        </CharString>
        <CharString name="Acircumflexdotbelow">
          95 callgsubr
          82 55 callsubr
          81 -21 133 callgsubr
          hintmask 01111100
          -107 callgsubr
          184 206 -107 callsubr
          hintmask 10000100
          -232 -840 -103 callsubr
        </CharString>
        <CharString name="Acircumflexgrave">
          75 callgsubr
          81 -21 -36 callgsubr
          184 206 -107 callsubr
          -16 141 rmoveto
          -9 -1 -15 -37 -31 hhcurveto
          -8 -6 2 3 -6 hvcurveto
          -120 -63 callgsubr
        </CharString>
        <CharString name="Acircumflexhookabove">
          75 callgsubr
          72 147 callgsubr
          308 127 callsubr
          hintmask 1110000000000000
          -107 callgsubr
          hintmask 0001000000100000
          184 206 -63 callsubr
        </CharString>
        <CharString name="Acircumflextilde">
          75 callgsubr
          81 -21 154 79 -25 79 -104 callgsubr
          hintmask 00010100
          184 206 -61 callsubr
        </CharString>
        <CharString name="Adblgrave">
          75 callgsubr
          91 -21 152 -87 callgsubr
          184 223 -89 callgsubr
        </CharString>
        <CharString name="Adieresis">
          75 callgsubr
          60 236 callsubr
          hintmask 11100000
          -107 callgsubr
          hintmask 00011100
          -9 219 -98 callgsubr
          endchar
        </CharString>
        <CharString name="Adotbelow">
          95 callgsubr
          82 75 86 75 387 226 callgsubr
          hintmask 01111000
          -107 callgsubr
          hintmask 10001000
          -48 -634 -103 callsubr
        </CharString>
        <CharString name="Agrave">
          75 callgsubr
          91 -21 146 -87 callgsubr
          148 223 -86 callsubr
        </CharString>
        <CharString name="Ahookabove">
          75 callgsubr
          92 134 callgsubr
          297 132 callsubr
          19 74 hintmask 1110010000000000
          -107 callgsubr
          hintmask 0000101001000000
          159 332 -24 callsubr
          33 12 -12 -6 -11 hvcurveto
          hintmask 0000000010000000
          47 callgsubr
          hintmask 0000000100000000
          -3 -18 rlineto
          hintmask 0001010000000000
          71 callsubr
          hintmask 0000000100000000
          72 callgsubr
          hintmask 0000000011000000
          -36 callsubr
        </CharString>
        <CharString name="Alpha">
          75 callgsubr
          hstem
          -107 callgsubr
          endchar
        </CharString>
        <CharString name="Amacron">
          75 callgsubr
          80 77 -36 callgsubr
          230 225 rmoveto
          38 6 -26 1 -20 hhcurveto
          -290 hlineto
          -19 -29 -56 callsubr
        </CharString>
        <CharString name="Aogonek">
          -198 68 130 55 callsubr
          hstem
          -5 callgsubr
          endchar
        </CharString>
        <CharString name="Aogonekacute">
          -198 68 130 55 callsubr
          91 151 callsubr
          hintmask 11110000
          -5 callgsubr
          hintmask 00001100
          158 281 -104 callsubr
        </CharString>
        <CharString name="Aring">
          0 75 86 75 387 47 40 47 hstemhm
          291 56 62 56 hintmask 11100000
          -107 callgsubr
          hintmask 00111100
          64 194 -20 callgsubr
          endchar
        </CharString>
        <CharString name="Aringacute">
          0 75 86 75 387 47 40 47 229 callgsubr
          291 56 62 56 0 56 hintmask 11100000
          -107 callgsubr
          hintmask 00111110
          64 194 -20 callgsubr
          56 190 -101 callgsubr
          rlineto
          hintmask 00000001
          174 callsubr
        </CharString>
        <CharString name="Atilde">
          75 callgsubr
          60 79 -25 79 -104 callgsubr
          hintmask 00001000
          222 261 rmoveto
          20 3 -14 7 callsubr
          -10 hvcurveto
          hintmask 00010000
          54 callgsubr
          hintmask 00001000
          -75 callsubr
          hintmask 00010000
          54 callsubr
          hintmask 00001000
          26 32 25 -4 callgsubr
          hintmask 00010000
          -51 callsubr
        </CharString>
        <CharString name="B">
          -2 callgsubr
        </CharString>
        <CharString name="Beta">
          -2 callgsubr
        </CharString>
        <CharString name="C">
          79 callgsubr
          hstem
          89 83 260 83 vstem
          -77 callgsubr
          -183 -30 90 -134 130 hhcurveto
          118 102 91 92 16 hvcurveto
          endchar
        </CharString>
        <CharString name="Cacute">
          175 callgsubr
          146 -20 hstemhm
          89 83 260 83 hintmask 11001100
          -77 callgsubr
          -183 -30 90 -134 130 hhcurveto
          118 102 91 92 16 hvcurveto
          hintmask 00110000
          15 605 -104 callsubr
        </CharString>
        <CharString name="Ccaron">
          79 callgsubr
          155 -20 hstemhm
          89 83 260 83 hintmask 11011000
          -77 callgsubr
          -183 -30 90 -134 130 hhcurveto
          118 102 91 92 16 hvcurveto
          hintmask 00100000
          47 566 -100 callgsubr
        </CharString>
        <CharString name="Ccedilla">
          -203 76 674 75 hstemhm
          89 83 90 83 0 83 4 83 hintmask 11110100
          -77 callgsubr
          -29 -176 82 -130 121 -10 -1 -6 rcurveline
          -4 -23 -2 -23 37 -2 37 -2 18 -13 -3 -16 rrcurveto
          -32 -5 -91 0 -34 hhcurveto
          -43 -25 -3 -35 -6 hvcurveto
          -28 -4 18 -10 18 hhcurveto
          hintmask 00001100
          97 221 callsubr
          82 28 62 70 12 71 rrcurveto
          endchar
        </CharString>
        <CharString name="Ccircumflex">
          79 callgsubr
          62 -21 hstemhm
          89 83 260 83 hintmask 11011000
          -77 callgsubr
          -183 -30 90 -134 130 hhcurveto
          118 102 91 92 16 hvcurveto
          hintmask 00100000
          41 530 -107 callsubr
          endchar
        </CharString>
        <CharString name="Cdotaccent">
          79 callgsubr
          52 113 hstemhm
          89 83 182 114 -36 83 hintmask 11010100
          -77 callgsubr
          -183 -30 90 -134 130 hhcurveto
          118 102 91 92 16 hvcurveto
          hintmask 00101000
          -47 559 -103 callsubr
        </CharString>
        <CharString name="Chi">
          0 callgsubr
        </CharString>
        <CharString name="D">
          111 callgsubr
          92 83 -7 83 204 82 hintmask 01010000
          7 callgsubr
          hintmask 10101000
          -76 -461 -16 callgsubr
          hintmask 01011000
          116 callgsubr
          endchar
        </CharString>
        <CharString name="Dcaron">
          166 callgsubr
          92 83 -7 83 204 82 hintmask 01001000
          7 callgsubr
          hintmask 10010100
          -76 -461 -16 callgsubr
          hintmask 01001100
          116 callgsubr
          hintmask 00100000
          17 437 -100 callgsubr
        </CharString>
        <CharString name="Dcroat">
          -11 callgsubr
        </CharString>
        <CharString name="Ddotbelow">
          74 callgsubr
          hstemhm
          92 83 -55 114 -66 83 204 82 hintmask 00100100
          7 callgsubr
          hintmask 01010010
          -76 -461 -16 callgsubr
          hintmask 00100110
          116 callgsubr
          hintmask 10001000
          -221 -439 -103 callsubr
        </CharString>
        <CharString name="Delta">
          0 81 542 -20 hstem
          497 29 rmoveto
          0 1 5 -3 15 vhcurveto
          -75 533 rlineto
          37 -5 -12 4 -37 hhcurveto
          -26 -24 -1 -37 -17 hvcurveto
          -254 -536 rlineto
          -7 -16 -1 -4 0 vvcurveto
          -27 -5 23 -2 19 hhcurveto
          376 hlineto
          19 23 2 27 5 hvcurveto
          -92 52 rmoveto
          -258 hlineto
          199 425 rlineto
          endchar
        </CharString>
        <CharString name="Dlinebelow">
          245 callsubr
          92 83 -7 83 204 82 hintmask 00101000
          7 callgsubr
          hintmask 01010100
          -76 -461 -16 callgsubr
          hintmask 00101100
          116 callgsubr
          hintmask 10000000
          -88 -451 rmoveto
          38 6 -27 1 -20 hhcurveto
          -290 hlineto
          -19 -28 -56 callsubr
        </CharString>
        <CharString name="E">
          86 callgsubr
          100 callsubr
          hintmask 0000000100000000
          40 callsubr
          hintmask 0000000001000000
          48 callsubr
          hintmask 1101000100000000
          -87 callsubr
          hintmask 0000001000000000
          15 91 rlineto
          hintmask 0110110000000000
          -80 callsubr
          hintmask 0000001000000000
          -14 callsubr
          hintmask 0000000010000000
          48 callgsubr
          hintmask 0010100001000000
          12 71 rlineto
          -76 callsubr
          hintmask 1001000000000000
          -79 callsubr
          endchar
        </CharString>
        <CharString name="Eacute">
          86 callgsubr
          83 -21 146 -20 -97 callgsubr
          hintmask 0001100000000000
          -9 729 -104 callsubr
        </CharString>
        <CharString name="Ebreve">
          86 callgsubr
          62 78 48 -20 -97 callgsubr
          hintmask 0001100000000000
          57 713 -90 callgsubr
        </CharString>
        <CharString name="Ecaron">
          86 callgsubr
          166 -20 -83 callgsubr
          23 690 -100 callgsubr
        </CharString>
        <CharString name="Ecircumflex">
          185 callsubr
          -83 callgsubr
          17 654 -107 callsubr
          endchar
        </CharString>
        <CharString name="Ecircumflexacute">
          185 callsubr
          280 -20 -97 callgsubr
          hintmask 0001100000000000
          17 654 -107 callsubr
          -6 199 -69 callgsubr
          226 callsubr
          rlinecurve
          endchar
        </CharString>
        <CharString name="Ecircumflexdotbelow">
          95 callgsubr
          82 75 callsubr
          73 -21 120 callgsubr
          -82 114 101 83 -50 88 callsubr
          hintmask 0110010000100000
          -87 callsubr
          hintmask 0000000001000000
          15 91 rlineto
          hintmask 0011001010000000
          -80 callsubr
          hintmask 0000000001000000
          -14 callsubr
          hintmask 0000000000010000
          48 callgsubr
          hintmask 0001001000001000
          12 71 rlineto
          -76 callsubr
          hintmask 0100110000000000
          -79 callsubr
          17 654 -107 callsubr
          hintmask 1000000100000000
          -232 -840 -103 callsubr
        </CharString>
        <CharString name="Ecircumflexgrave">
          185 callsubr
          -83 callgsubr
          17 654 -107 callsubr
          -16 141 rmoveto
          -9 -1 -15 -37 -31 hhcurveto
          -8 -6 2 3 -6 hvcurveto
          -120 -63 callgsubr
        </CharString>
        <CharString name="Ecircumflexhookabove">
          86 callgsubr
          64 147 callgsubr
          106 83 -7 83 43 70 20 83 -64 70 -56 83 -71 83 -68 70 -67 70 -51 70 -69 83 -71 83 hintmask 000000000000100000000000
          40 callsubr
          hintmask 000000000000000001000000
          48 callsubr
          hintmask 110000100000100000000000
          -87 callsubr
          hintmask 000000000001000000000000
          15 91 rlineto
          hintmask 011000010100000000000000
          -80 callsubr
          hintmask 000000000001000000000000
          -14 callsubr
          hintmask 000000000000000010000000
          48 callgsubr
          hintmask 001000010000000001000000
          12 71 rlineto
          -76 callsubr
          hintmask 100000100000000000000000
          -79 callsubr
          hintmask 000100000000000100000000
          17 654 rmoveto
          3 20 -22 11 -30 12 -73 28 rcurveline
          -12 5 -6 0 -14 -5 -83 -28 rcurveline
          -35 -12 -25 -11 -3 -20 rrcurveto
          hintmask 000010000000000000000000
          -18 -3 5 -21 27 hhcurveto
          hintmask 000100001000000000000000
          9 20 6 6 21 hvcurveto
          70 20 62 -20 rlineto
          hintmask 000011000010000000000000
          -60 callgsubr
          hintmask 000000000000000100000000
          34 callgsubr
          hintmask 000000000000001000000000
          47 callgsubr
          hintmask 000000000000010000000000
          -3 -18 rlineto
          hintmask 000000000010000000000000
          71 callsubr
          hintmask 000000000000010000000000
          72 callgsubr
          hintmask 000000000000001000000000
          3 18 rlineto
          hintmask 000000000000000001000000
          177 callsubr
          28 14 24 12 20 24 4 26 rrcurveto
          endchar
        </CharString>
        <CharString name="Ecircumflextilde">
          185 callsubr
          154 79 -25 79 hstemhm
          106 83 -7 83 133 83 -50 88 callsubr
          hintmask 1100001000100000
          -87 callsubr
          hintmask 0000000001000000
          15 91 rlineto
          hintmask 0110000110000000
          -80 callsubr
          hintmask 0000000001000000
          -14 callsubr
          hintmask 0000000000010000
          48 callgsubr
          hintmask 0010000100001000
          12 71 rlineto
          -76 callsubr
          hintmask 1000001000000000
          -79 callsubr
          hintmask 0001010000000000
          17 654 -107 callsubr
          63 209 57 callgsubr
          hintmask 0000100000000000
          70 callsubr
          hintmask 0000010000000000
          13 156 callsubr
          -31 117 callsubr
          hintmask 0000100000000000
          70 callgsubr
          hintmask 0000010000000000
          26 33 25 -4 callgsubr
          hintmask 0000100000000000
          38 callgsubr
          24 16 34 25 3 19 rrcurveto
          endchar
        </CharString>
        <CharString name="Edblgrave">
          86 callgsubr
          83 -21 152 -20 -97 callgsubr
          hintmask 0001100000000000
          46 671 -89 callgsubr
        </CharString>
        <CharString name="Edieresis">
          86 callgsubr
          52 103 120 callgsubr
          -33 104 62 83 -54 104 -100 88 callsubr
          hintmask 1100100000100000
          -87 callsubr
          hintmask 0000000001000000
          15 91 rlineto
          hintmask 0110010100000000
          -80 callsubr
          hintmask 0000000001000000
          -14 callsubr
          hintmask 0000000000010000
          48 callgsubr
          hintmask 0010010000001000
          -49 callgsubr
          hintmask 0001001010000000
          -176 667 -98 callgsubr
          endchar
        </CharString>
        <CharString name="Edotaccent">
          86 callgsubr
          63 113 120 callgsubr
          63 114 -44 129 callgsubr
          -45 83 -71 83 hintmask 0000000001000000
          40 callsubr
          hintmask 0000000000010000
          48 callsubr
          hintmask 1100100001000000
          -43 callsubr
          hintmask 0110010100000000
          -55 callgsubr
          hintmask 0010010000010000
          -49 callgsubr
          hintmask 0001001000000000
          -70 683 -103 callsubr
        </CharString>
        <CharString name="Edotbelow">
          95 callgsubr
          82 75 callsubr
          120 callgsubr
          -82 114 101 129 callgsubr
          -45 83 -71 83 hintmask 0000000001000000
          40 callsubr
          hintmask 0000000000010000
          48 callsubr
          hintmask 0110100001000000
          -43 callsubr
          hintmask 0011010100000000
          -55 callgsubr
          hintmask 0001010000010000
          12 71 rlineto
          -76 callsubr
          hintmask 0100100000000000
          -79 callsubr
          hintmask 1000001000000000
          -215 -186 -103 callsubr
        </CharString>
        <CharString name="Egrave">
          86 callgsubr
          83 -21 146 -20 -97 callgsubr
          hintmask 0001100000010000
          -19 671 -86 callsubr
        </CharString>
        <CharString name="Ehookabove">
          86 callgsubr
          84 -21 170 70 120 callgsubr
          32 132 callsubr
          -13 83 -51 74 -73 83 -71 83 -45 83 -71 83 hintmask 000000000000001000000000
          40 callsubr
          hintmask 000000000000000010000000
          48 callsubr
          hintmask 110001010000001000000000
          -87 callsubr
          hintmask 000000000000010000000000
          15 91 rlineto
          hintmask 011000100001000000000000
          -80 callsubr
          hintmask 000000000000010000000000
          -14 callsubr
          hintmask 000000000000000100000000
          48 callgsubr
          hintmask 001000100000000010000000
          12 71 rlineto
          -76 callsubr
          hintmask 100001000000000000000000
          -79 callsubr
          hintmask 000010001000100000000000
          -8 780 -24 callsubr
          33 12 -12 -6 -11 hvcurveto
          hintmask 000000000010000000000000
          47 callgsubr
          hintmask 000000000100000000000000
          -3 -18 rlineto
          hintmask 000100010000000000000000
          71 callsubr
          hintmask 000000000100000000000000
          72 callgsubr
          hintmask 000000000010100000000000
          -36 callsubr
        </CharString>
        <CharString name="Emacron">
          86 callgsubr
          72 77 -83 callgsubr
          63 673 rmoveto
          38 6 -26 1 -20 hhcurveto
          -290 hlineto
          -19 -29 -56 callsubr
        </CharString>
        <CharString name="Eng">
          -11 102 -91 75 -75 84 452 75 -73 84 hstemhm
          106 176 callsubr
          32 83 72 84 hintmask 0000100100000000
          543 306 rmoveto
          157 26 -39 159 -138 hhcurveto
          -43 -41 -15 -26 -36 hvcurveto
          hintmask 0001010000000000
          22 1 -10 8 -32 hhcurveto
          -71 hlineto
          53 callgsubr
          hintmask 0001001000000000
          36 hlineto
          hintmask 0100010000000000
          -7 callsubr
          -35 9 callsubr
          155 hlineto
          hintmask 0100001000000000
          17 -74 callsubr
          hintmask 0100100101000000
          -35 hlineto
          58 349 rlineto
          62 17 54 52 60 hhcurveto
          96 4 -121 -111 -19 hvcurveto
          hintmask 0010000010000000
          -14 -86 -18 -104 -40 -32 rrcurveto
          hintmask 1000000011000000
          4 -6 -9 3 -10 hhcurveto
          -27 -27 -23 -28 -4 hvcurveto
          -28 -5 19 -23 27 hhcurveto
          129 44 166 151 25 hvcurveto
          endchar
        </CharString>
        <CharString name="Eogonek">
          -198 68 130 75 callsubr
          135 callsubr
          -61 73 -57 83 -71 83 hintmask 0000000010000000
          40 callsubr
          hintmask 0000000000010000
          48 callsubr
          hintmask 0110100010000000
          13 callgsubr
          hintmask 0011011000000000
          18 callsubr
          hintmask 0000000000100000
          42 4 25 23 4 hvcurveto
          hintmask 0000000000010000
          12 71 rlineto
          hintmask 0001010001000000
          -76 callsubr
          hintmask 1100100001000000
          -68 callgsubr
          254 hlineto
          -33 -25 -24 -32 -6 -40 15 callgsubr
          46 hlineto
          38 11 10 38 6 hvcurveto
          endchar
        </CharString>
        <CharString name="Eogonekacute">
          -198 68 130 75 callsubr
          83 -21 146 -20 135 callsubr
          -61 73 -57 83 -71 83 hintmask 0000000000100000
          40 callsubr
          hintmask 0000000000000100
          48 callsubr
          hintmask 0110001000100000
          -87 callsubr
          hintmask 0000000001000000
          15 91 rlineto
          hintmask 0011000110000000
          -80 callsubr
          hintmask 0000000001000000
          -14 callsubr
          hintmask 0000000000001000
          48 callgsubr
          hintmask 0000000000000100
          12 71 rlineto
          hintmask 0001000100010000
          -76 callsubr
          hintmask 1100001000010000
          -68 callgsubr
          254 hlineto
          -33 -25 -24 -32 -6 -40 15 callgsubr
          46 hlineto
          38 11 10 38 6 hvcurveto
          hintmask 0000110000010000
          -9 729 -104 callsubr
        </CharString>
        <CharString name="Epsilon">
          86 callgsubr
          100 callsubr
          hintmask 0000000100000000
          40 callsubr
          hintmask 0000000001000000
          48 callsubr
          hintmask 1101000100000000
          -87 callsubr
          hintmask 0000001000000000
          15 91 rlineto
          hintmask 0110110000000000
          -80 callsubr
          hintmask 0000001000000000
          -14 callsubr
          hintmask 0000000010000000
          48 callgsubr
          hintmask 0010100001000000
          12 71 rlineto
          -76 callsubr
          hintmask 1001000000000000
          -79 callsubr
          endchar
        </CharString>
        <CharString name="Ereversed">
          86 callgsubr
          hstemhm
          46 83 -1 83 154 83 -7 83 hintmask 10000100
          510 37 rmoveto
          37 6 -28 -12 callgsubr
          -21 hlineto
          hintmask 01101010
          104 callsubr
          21 hlineto
          18 31 1 37 6 hvcurveto
          36 6 -30 4 callgsubr
          -364 hlineto
          -39 -9 -12 -36 -6 hvcurveto
          -12 -71 rlineto
          -23 -4 -4 -25 42 hhcurveto
          40 5 26 22 4 hvcurveto
          7 44 rlineto
          223 hlineto
          -30 -182 rlineto
          -112 hlineto
          40 6 -2 15 -37 hhcurveto
          -40 -5 -25 -22 -4 hvcurveto
          -15 -91 239 callgsubr
          37 7 15 41 8 hvcurveto
          112 hlineto
          hintmask 10010100
          -34 -204 rlineto
          -245 hlineto
          9 59 rlineto
          24 4 3 24 -41 hhcurveto
          -40 -5 -25 -23 -4 hvcurveto
          -14 -86 rlineto
          -38 -6 7 -10 38 hhcurveto
          385 154 callsubr
        </CharString>
        <CharString name="Eta">
          0 131 callgsubr
          hintmask 10000100
          510 37 rmoveto
          -67 callsubr
          -17 hlineto
          hintmask 01101010
          -79 callgsubr
          hintmask 11010100
          -73 callgsubr
          endchar
        </CharString>
        <CharString name="Eth">
          -11 callgsubr
        </CharString>
        <CharString name="Etilde">
          86 callgsubr
          52 79 -25 79 -97 callgsubr
          hintmask 0000100000000000
          55 709 -24 callgsubr
        </CharString>
        <CharString name="Euro">
          -11 76 141 76 48 76 140 76 hstem
          159 84 -80 84 -80 84 cntrmask 00001110
          474 25 rmoveto
          16 93 rlineto
          20 3 -14 16 -19 hhcurveto
          -12 hlineto
          -19 -18 -14 -17 -4 hvcurveto
          -33 -10 -33 -25 -33 hhcurveto
          -38 -20 31 33 -13 hvcurveto
          -11 23 -5 27 -2 27 rrcurveto
          129 hlineto
          15 13 9 13 5 hvcurveto
          7 16 rlineto
          19 8 -11 19 -20 hhcurveto
          -145 hlineto
          4 24 4 24 rlineto
          171 hlineto
          15 14 10 13 4 hvcurveto
          6 15 rlineto
          20 9 -11 18 -20 hhcurveto
          -163 hlineto
          10 27 15 26 18 24 rrcurveto
          32 24 30 31 38 hhcurveto
          33 25 -25 -33 -2 hvcurveto
          -17 12 -14 19 vhcurveto
          12 hlineto
          19 20 16 20 3 hvcurveto
          16 93 rlineto
          20 3 -14 16 -19 hhcurveto
          -4 hlineto
          -12 -11 -5 -8 -7 hvcurveto
          -8 -7 rlineto
          13 -21 -27 7 -29 hhcurveto
          -63 -61 -45 -55 -42 hvcurveto
          -28 -36 -20 -39 -15 -41 rrcurveto
          -29 hlineto
          -14 -14 -10 -13 -5 hvcurveto
          -6 -16 rlineto
          -18 -9 12 -19 20 hhcurveto
          22 hlineto
          -4 -24 -4 -24 rlineto
          -19 hlineto
          -14 -14 -11 -13 -5 hvcurveto
          -5 -15 rlineto
          -19 -10 12 -18 20 hhcurveto
          32 hlineto
          1 -42 8 -38 16 -37 rrcurveto
          -55 24 45 -45 63 hhcurveto
          29 29 7 13 28 hvcurveto
          4 -6 rlineto
          -9 4 9 -5 12 hhcurveto
          4 hlineto
          19 20 16 20 3 hvcurveto
          endchar
        </CharString>
        <CharString name="F">
          0 75 193 216 callsubr
          hstemhm
          111 176 callsubr
          214 83 cntrmask 11100000
          hintmask 11101000
          574 492 rmoveto
          65 callsubr
          -371 -49 callsubr
          24 hlineto
          hintmask 11110000
          -7 callsubr
          -24 -85 callsubr
          18 hhcurveto
          150 hlineto
          hintmask 11100100
          -61 callgsubr
          -43 hlineto
          150 callsubr
          117 hlineto
          -41 -7 1 -15 38 hhcurveto
          40 6 26 22 3 hvcurveto
          16 91 230 callgsubr
          26 -40 hhcurveto
          -38 -7 -15 -41 -7 hvcurveto
          -117 hlineto
          hintmask 11101010
          150 callsubr
          228 180 callgsubr
        </CharString>
        <CharString name="G">
          -11 132 callgsubr
          hstem
          87 83 vstem
          -100 callsubr
          endchar
        </CharString>
        <CharString name="Gacute">
          -11 132 callgsubr
          72 151 callsubr
          87 83 hintmask 11100100
          -100 callsubr
          hintmask 00011000
          -35 535 -104 callsubr
        </CharString>
        <CharString name="Gamma">
          111 callgsubr
          118 83 -7 83 212 83 hintmask 01010000
          572 492 rmoveto
          65 callsubr
          -366 19 callgsubr
          hintmask 10100000
          -7 callsubr
          -28 -49 callsubr
          158 hlineto
          16 160 callsubr
          -29 1 -17 hhcurveto
          -47 hlineto
          hintmask 01011000
          104 callsubr
          219 180 callgsubr
        </CharString>
        <CharString name="Gbreve">
          -11 132 callgsubr
          51 78 48 -20 hstemhm
          87 83 hintmask 11100100
          -100 callsubr
          hintmask 00011000
          31 519 -90 callgsubr
        </CharString>
        <CharString name="Gcaron">
          -11 132 callgsubr
          155 -20 hstemhm
          87 83 hintmask 11101000
          -100 callsubr
          hintmask 00010000
          -3 496 -100 callgsubr
        </CharString>
        <CharString name="Gcedilla">
          97 callgsubr
          6 132 callgsubr
          hstem
          87 83 26 119 vstem
          -100 callsubr
          -223 -339 rmoveto
          50 8 -27 30 -36 hhcurveto
          -97 callsubr
        </CharString>
        <CharString name="Gcircumflex">
          -11 132 callgsubr
          62 -21 hstemhm
          87 83 hintmask 11101000
          -100 callsubr
          hintmask 00010000
          -9 460 -107 callsubr
          endchar
        </CharString>
        <CharString name="Gcommaaccent">
          97 callgsubr
          6 132 callgsubr
          hstemhm
          87 83 26 119 hintmask 00111100
          -100 callsubr
          hintmask 11000010
          -223 -339 rmoveto
          50 8 -27 30 -36 hhcurveto
          -97 callsubr
        </CharString>
        <CharString name="Gdotaccent">
          -11 132 callgsubr
          52 113 hstemhm
          87 83 158 114 hintmask 11101000
          -100 callsubr
          hintmask 00010100
          -96 489 -103 callsubr
        </CharString>
        <CharString name="H">
          0 131 callgsubr
          hintmask 10000100
          510 37 rmoveto
          -67 callsubr
          -17 hlineto
          hintmask 01101010
          -79 callgsubr
          hintmask 11010100
          -73 callgsubr
          endchar
        </CharString>
        <CharString name="H_uni0303">
          159 callgsubr
          52 163 callsubr
          97 83 -7 83 114 83 -7 83 hintmask 1000000100000000
          510 37 rmoveto
          -67 callsubr
          -17 hlineto
          hintmask 0110001010000000
          -79 callgsubr
          hintmask 1100010100000000
          -73 callgsubr
          hintmask 0000100000000000
          57 720 -24 callgsubr
        </CharString>
        <CharString name="Hbar">
          0 75 205 75 61 76 44 75 hstemhm
          97 83 -80 83 -52 83 -61 83 -70 83 -76 83 114 83 -27 83 -70 83 -76 83 hintmask 1000000000100000
          510 37 rmoveto
          -67 callsubr
          -17 hlineto
          hintmask 0010000000010000
          56 341 rlineto
          22 212 callgsubr
          hintmask 0010000000001000
          -22 hlineto
          hintmask 0001000000000100
          7 44 rlineto
          17 -60 callsubr
          -116 31 callsubr
          hintmask 0010000010001000
          -7 -44 rlineto
          -190 hlineto
          hintmask 0001000001000000
          7 44 rlineto
          16 -60 callsubr
          -116 -53 callgsubr
          17 hlineto
          hintmask 0010000010000000
          -7 -44 rlineto
          -22 hlineto
          hintmask 0000010000000000
          -21 -20 -17 -21 -3 hvcurveto
          hintmask 0010001000000000
          -21 -4 14 -17 21 hhcurveto
          hintmask 0010000100000000
          22 hlineto
          hintmask 1000100000000000
          -56 -341 rlineto
          -17 -49 callsubr
          hintmask 1000010000000000
          116 hlineto
          hintmask 1000000100000000
          -61 callgsubr
          hintmask 1000100000000000
          -16 hlineto
          hintmask 1100001000100000
          114 callgsubr
          190 hlineto
          -34 -205 1 callgsubr
          -94 318 rmoveto
          -190 hlineto
          hintmask 0110000100010000
          10 61 rlineto
          190 hlineto
          endchar
        </CharString>
        <CharString name="Hbrevebelow">
          -213 78 48 -20 107 131 callgsubr
          hintmask 0010000100000000
          510 37 rmoveto
          -67 callsubr
          -17 hlineto
          hintmask 0001101010000000
          -79 callgsubr
          hintmask 0011010100000000
          -73 callgsubr
          hintmask 1100000000000000
          -89 -162 -22 callsubr
        </CharString>
        <CharString name="Hcircumflex">
          159 callgsubr
          73 -21 hstemhm
          97 83 -7 83 114 83 -7 83 hintmask 10000010
          510 37 rmoveto
          -67 callsubr
          -17 hlineto
          hintmask 01100101
          -79 callgsubr
          hintmask 11001010
          -73 callgsubr
          hintmask 00010001
          19 665 -107 callsubr
          endchar
        </CharString>
        <CharString name="Hdieresis">
          159 callgsubr
          52 103 hstemhm
          97 83 -7 83 -24 104 34 83 -26 104 -85 83 hintmask 1000000100000000
          510 37 rmoveto
          -67 callsubr
          -17 hlineto
          hintmask 0110010001000000
          -79 callgsubr
          hintmask 1100100100000000
          -73 callgsubr
          hintmask 0001001010000000
          -174 678 -98 callgsubr
          endchar
        </CharString>
        <CharString name="Hdotbelow">
          95 callgsubr
          82 110 callgsubr
          hstemhm
          97 83 -7 83 -73 114 73 83 -7 83 hintmask 0100000100000000
          510 37 rmoveto
          -67 callsubr
          -17 hlineto
          hintmask 0011010010000000
          -79 callgsubr
          hintmask 0110101100000000
          -73 callgsubr
          hintmask 1000001000000000
          -213 -175 -103 callsubr
        </CharString>
        <CharString name="I">
          0 75 461 75 128 callsubr
          hintmask 10100000
          -8 callsubr
          hintmask 01010000
          -85 callgsubr
          hintmask 10100000
          -70 callgsubr
          endchar
        </CharString>
        <CharString name="Iacute">
          45 callsubr
          83 -21 146 -20 128 callsubr
          -73 callsubr
          hintmask 00110000
          48 740 -104 callsubr
        </CharString>
        <CharString name="Ibreve">
          45 callsubr
          62 78 48 -20 128 callsubr
          -73 callsubr
          hintmask 00110000
          114 724 -90 callgsubr
        </CharString>
        <CharString name="Icaron">
          166 callgsubr
          234 83 -7 83 hintmask 10010000
          -8 callsubr
          hintmask 01001000
          -85 callgsubr
          hintmask 10010000
          -70 callgsubr
          hintmask 00100000
          80 701 -100 callgsubr
        </CharString>
        <CharString name="Icircumflex">
          45 callsubr
          73 -21 128 callsubr
          hintmask 10010000
          -8 callsubr
          hintmask 01001000
          -85 callgsubr
          hintmask 10010000
          -70 callgsubr
          hintmask 00100000
          74 665 -107 callsubr
          endchar
        </CharString>
        <CharString name="Idblgrave">
          45 callsubr
          83 -21 152 -20 128 callsubr
          -73 callsubr
          hintmask 00110000
          103 682 -89 callgsubr
        </CharString>
        <CharString name="Idieresis">
          200 callgsubr
          103 hstemhm
          232 104 -102 83 -7 83 34 104 -73 callsubr
          hintmask 00110010
          -119 678 -98 callgsubr
          endchar
        </CharString>
        <CharString name="Idieresisacute">
          200 callgsubr
          103 82 151 callsubr
          232 104 -102 83 -7 83 34 104 hintmask 1000001000000000
          -8 callsubr
          hintmask 0100000100000000
          -85 callgsubr
          hintmask 1000001000000000
          -70 callgsubr
          hintmask 0011110010000000
          -119 678 -98 callgsubr
          -2 216 -104 callsubr
        </CharString>
        <CharString name="Idotaccent">
          45 callsubr
          63 113 128 callsubr
          -65 114 hintmask 10010000
          -8 callsubr
          hintmask 01001000
          -85 callgsubr
          hintmask 10010000
          -70 callgsubr
          hintmask 00100100
          -13 694 -103 callsubr
        </CharString>
        <CharString name="Idotbelow">
          74 callgsubr
          133 callgsubr
          -63 83 -7 83 hintmask 01001000
          -8 callsubr
          hintmask 00100100
          -85 callgsubr
          hintmask 01001000
          -70 callgsubr
          hintmask 10010000
          -158 -175 -103 callsubr
        </CharString>
        <CharString name="Igrave">
          45 callsubr
          83 -21 146 -20 128 callsubr
          -73 callsubr
          hintmask 00110000
          38 682 -86 callsubr
        </CharString>
        <CharString name="Ihookabove">
          45 callsubr
          84 134 callgsubr
          234 83 -20 70 -70 72 -59 83 -55 70 -67 70 19 74 hintmask 1000100000000000
          -8 callsubr
          hintmask 0100000100000000
          -85 callgsubr
          hintmask 1000100000000000
          -70 callgsubr
          hintmask 0001001000100000
          49 791 -24 callsubr
          101 callsubr
          hintmask 0010010000000000
          71 callsubr
          hintmask 0000000010000000
          72 callgsubr
          hintmask 0000000001100000
          -36 callsubr
        </CharString>
        <CharString name="Imacron">
          45 callsubr
          72 77 128 callsubr
          hintmask 10010000
          -8 callsubr
          hintmask 01001000
          -85 callgsubr
          hintmask 10010000
          -70 callgsubr
          hintmask 00100000
          120 684 rmoveto
          38 6 -26 1 -20 hhcurveto
          -290 hlineto
          -19 -29 -56 callsubr
        </CharString>
        <CharString name="Imacron.alt">
          45 callsubr
          72 77 128 callsubr
          hintmask 10010000
          -8 callsubr
          hintmask 01001000
          -85 callgsubr
          hintmask 10010000
          -70 callgsubr
          hintmask 00100000
          32 684 122 callsubr
        </CharString>
        <CharString name="Iogonek">
          -198 68 130 60 callsubr
          hstemhm
          151 83 0 83 -7 83 hintmask 01001000
          -8 callsubr
          hintmask 11110100
          23 callgsubr
          endchar
        </CharString>
        <CharString name="Iogonekacute">
          -198 68 130 60 callsubr
          83 151 callsubr
          151 83 0 83 -7 83 hintmask 01000010
          -8 callsubr
          hintmask 11100101
          23 callgsubr
          hintmask 00011000
          48 740 -104 callsubr
        </CharString>
        <CharString name="Iota">
          0 75 461 75 128 callsubr
          hintmask 10100000
          -8 callsubr
          hintmask 01010000
          -85 callgsubr
          hintmask 10100000
          -70 callgsubr
          endchar
        </CharString>
        <CharString name="Itilde">
          200 callgsubr
          79 -25 79 128 callsubr
          -73 callsubr
          hintmask 00010000
          112 720 -86 callgsubr
        </CharString>
        <CharString name="J">
          237 callsubr
          hstem
          228 callgsubr
          vstem
          -47 callsubr
          endchar
        </CharString>
        <CharString name="J_uni030C.cap">
          -11 75 19 75 266 -21 101 107 -75 75 hstemhm
          228 callgsubr
          127 119 hintmask 11001111
          -47 callsubr
          169 -43 125 callgsubr
          hintmask 00110001
          33 callgsubr
        </CharString>
        <CharString name="Jacute">
          237 callsubr
          83 151 callsubr
          228 callgsubr
          hintmask 11100110
          -47 callsubr
          hintmask 00011000
          11 203 -104 callsubr
        </CharString>
        <CharString name="Jcircumflex">
          237 callsubr
          73 -21 hstemhm
          228 callgsubr
          hintmask 11101100
          -47 callsubr
          hintmask 00010000
          37 128 -107 callsubr
          endchar
        </CharString>
        <CharString name="K">
          -6 callgsubr
        </CharString>
        <CharString name="Kappa">
          -6 callgsubr
        </CharString>
        <CharString name="Kcedilla">
          78 callgsubr
          hstemhm
          99 70 6 70 -57 70 -62 119 hintmask 00110100
          -2 callsubr
          hintmask 00010010
          13 hlineto
          18 160 callsubr
          -29 -12 callgsubr
          -97 -96 callgsubr
          28 -1 19 hhcurveto
          hintmask 00111100
          14 202 callgsubr
          -14 6 callgsubr
          29 -1 19 hhcurveto
          97 -60 callsubr
          -13 hlineto
          hintmask 01100010
          47 callsubr
          -188 195 callgsubr
          hintmask 11000001
          -97 callsubr
        </CharString>
        <CharString name="Kcommaaccent">
          78 callgsubr
          hstemhm
          99 70 6 70 -57 70 -62 119 hintmask 00110100
          -2 callsubr
          hintmask 00010010
          13 hlineto
          18 160 callsubr
          -29 -12 callgsubr
          -97 -96 callgsubr
          28 -1 19 hhcurveto
          hintmask 00111100
          14 202 callgsubr
          -14 6 callgsubr
          29 -1 19 hhcurveto
          97 -60 callsubr
          -13 hlineto
          hintmask 00100010
          47 callsubr
          hintmask 11000001
          -188 -134 rmoveto
          50 8 -27 30 -36 hhcurveto
          -97 callsubr
        </CharString>
        <CharString name="L">
          0 75 461 75 243 callsubr
          hintmask 10101100
          -26 callgsubr
          hintmask 01011000
          76 461 -50 callsubr
          hintmask 10100000
          -19 callgsubr
          endchar
        </CharString>
        <CharString name="L_uni0303">
          200 callgsubr
          79 -25 79 243 callsubr
          hintmask 10001011
          -26 callgsubr
          hintmask 01000110
          76 461 -50 callsubr
          hintmask 10001000
          -19 callgsubr
          hintmask 00010000
          -50 709 -86 callgsubr
        </CharString>
        <CharString name="Lacute">
          45 callsubr
          83 -21 146 -20 243 callsubr
          hintmask 10001011
          -26 callgsubr
          hintmask 01000110
          76 461 -50 callsubr
          hintmask 10001000
          -19 callgsubr
          hintmask 00110000
          -114 729 -104 callsubr
        </CharString>
        <CharString name="Lambda">
          0 75 548 -20 hstem
          503 37 rmoveto
          33 6 -19 5 -37 hhcurveto
          -33 506 rlineto
          41 -3 -22 1 -24 hhcurveto
          -10 hlineto
          -23 -23 -1 -38 -16 hvcurveto
          -202 -509 rlineto
          -37 -21 -5 -33 -48 callsubr
          18 hhcurveto
          105 -60 callsubr
          -11 hlineto
          162 414 24 -414 rlineto
          -11 6 callgsubr
          29 -1 19 hhcurveto
          105 154 callsubr
        </CharString>
        <CharString name="Lcaron">
          0 75 349 -21 101 107 -75 75 243 callsubr
          -65 119 hintmask 1000101100000000
          -26 callgsubr
          hintmask 0001011000000000
          76 461 -50 callsubr
          hintmask 1001100010000000
          -19 callgsubr
          68 483 125 callgsubr
          hintmask 0110000010000000
          33 callgsubr
        </CharString>
        <CharString name="Lcedilla">
          78 callgsubr
          hstemhm
          118 83 -7 83 -81 119 22 83 9 83 hintmask 0010100110000000
          -26 callgsubr
          hintmask 0001010100000000
          76 461 -50 callsubr
          hintmask 0110100000000000
          -19 callgsubr
          -183 -145 24 callgsubr
          hintmask 1100001000000000
          -97 callsubr
        </CharString>
        <CharString name="Lcommaaccent">
          78 callgsubr
          hstemhm
          118 83 -7 83 -81 119 22 83 9 83 hintmask 0010100110000000
          -26 callgsubr
          hintmask 0001010100000000
          76 461 -50 callsubr
          hintmask 0010100000000000
          -19 callgsubr
          hintmask 1100001000000000
          -183 -145 rmoveto
          50 8 -27 30 -36 hhcurveto
          -97 callsubr
        </CharString>
        <CharString name="Ldot">
          245 callgsubr
          118 83 -7 83 60 83 -15 114 -90 83 hintmask 10010101
          -26 callgsubr
          hintmask 00101100
          76 461 -50 callsubr
          hintmask 11010010
          -19 callgsubr
          21 269 -103 callsubr
        </CharString>
        <CharString name="Ldotbelow">
          74 callgsubr
          hstemhm
          118 83 -18 114 -103 83 60 83 9 83 hintmask 01010011
          -26 callgsubr
          hintmask 00100110
          76 461 -50 callsubr
          hintmask 01010000
          -19 callgsubr
          hintmask 10001000
          -201 -186 -103 callsubr
        </CharString>
        <CharString name="Ldotbelowmacron">
          74 callgsubr
          72 77 hstemhm
          118 83 -18 114 -103 83 60 83 9 83 hintmask 0100100110000000
          -26 callgsubr
          hintmask 0010001100000000
          76 461 -50 callsubr
          hintmask 1100100000000000
          -19 callgsubr
          -201 -186 rmoveto
          224 callsubr
          hintmask 1000010000000000
          -99 callgsubr
          hintmask 0001000010000000
          172 859 rmoveto
          38 6 -26 1 -20 hhcurveto
          -290 hlineto
          -19 -29 -56 callsubr
        </CharString>
        <CharString name="Lslash">
          111 callgsubr
          118 83 -7 83 -23 83 0 83 9 83 hintmask 10100110
          -26 callgsubr
          38 230 215 130 207 callsubr
          rrcurveto
          hintmask 00001000
          -169 -104 rlineto
          hintmask 01010100
          23 143 -50 callsubr
          -33 -200 -70 -43 -18 -11 -9 -24 8 -16 rlinecurve
          9 -16 22 -5 19 12 24 15 rcurveline
          hintmask 10100000
          -28 -173 rlineto
          -28 -49 callsubr
          366 205 callgsubr
        </CharString>
        <CharString name="M">
          45 callsubr
          hstem
          80 71 161 70 18 70 vstem
          -53 callsubr
          endchar
        </CharString>
        <CharString name="Mdotbelow">
          74 callgsubr
          hstemhm
          80 71 32 114 15 70 18 70 hintmask 01110110
          -53 callsubr
          hintmask 10001000
          -218 -175 -103 callsubr
        </CharString>
        <CharString name="Mu">
          45 callsubr
          hstem
          80 71 161 70 18 70 vstem
          -53 callsubr
          endchar
        </CharString>
        <CharString name="N">
          45 callsubr
          hstem
          103 70 280 70 vstem
          -101 callsubr
          endchar
        </CharString>
        <CharString name="Nacute">
          45 callsubr
          83 151 callsubr
          103 70 280 70 hintmask 11001100
          -101 callsubr
          hintmask 00110000
          -91 204 -104 callsubr
        </CharString>
        <CharString name="Ncaron">
          166 callgsubr
          103 70 280 70 hintmask 11011000
          -101 callsubr
          hintmask 00100000
          -59 165 -100 callgsubr
        </CharString>
        <CharString name="Ncedilla">
          78 callgsubr
          hstem
          103 70 23 119 138 70 vstem
          -101 callsubr
          -279 -670 rmoveto
          50 8 -27 30 -36 hhcurveto
          -97 callsubr
        </CharString>
        <CharString name="Ncommaaccent">
          78 callgsubr
          hstemhm
          103 70 23 119 138 70 hintmask 00111010
          -101 callsubr
          hintmask 11000100
          -279 -670 rmoveto
          50 8 -27 30 -36 hhcurveto
          -97 callsubr
        </CharString>
        <CharString name="Ndotaccent">
          200 callgsubr
          113 hstemhm
          103 70 153 114 13 70 hintmask 11010100
          -101 callsubr
          hintmask 00101000
          -154 147 -103 callsubr
        </CharString>
        <CharString name="Ndotbelow">
          74 callgsubr
          hstemhm
          103 70 10 114 156 70 hintmask 01110100
          -101 callsubr
          hintmask 10001000
          -297 -711 -103 callsubr
        </CharString>
        <CharString name="Ntilde">
          200 callgsubr
          163 callsubr
          103 70 280 70 hintmask 11001100
          -101 callsubr
          hintmask 00010000
          -27 184 -86 callgsubr
        </CharString>
        <CharString name="Nu">
          45 callsubr
          hstem
          103 70 280 70 vstem
          -101 callsubr
          endchar
        </CharString>
        <CharString name="O">
          79 callgsubr
          hstem
          -106 callsubr
          endchar
        </CharString>
        <CharString name="OE">
          -11 75 -64 75 callsubr
          -64 75 hstemhm
          209 72 -26 70 -26 72 cntrmask 00000111
          hintmask 01110111
          512 115 callgsubr
          -110 hlineto
          34 204 rlineto
          112 hlineto
          17 -66 callsubr
          -112 hlineto
          30 182 rlineto
          103 hlineto
          124 callgsubr
          -40 callsubr
          -40 hhcurveto
          -154 hlineto
          -11 -10 0 5 -22 hvcurveto
          hintmask 10001111
          122 callgsubr
          20 7 0 7 35 hvcurveto
          hintmask 01000111
          169 callgsubr
          hintmask 10001111
          169 callsubr
          44 10 -15 -96 -16 hvcurveto
          endchar
        </CharString>
        <CharString name="OE.dup">
          -11 75 -64 75 callsubr
          -64 75 hstemhm
          209 72 -26 70 -38 68 -56 72 42 70 -27 70 -17 70 hintmask 0110000010100000
          512 115 callgsubr
          -110 hlineto
          34 204 rlineto
          hintmask 0011000101010000
          112 hlineto
          17 -66 callsubr
          -112 hlineto
          30 182 rlineto
          103 hlineto
          124 callgsubr
          -40 callsubr
          -40 hhcurveto
          -154 hlineto
          -11 -10 0 5 -22 hvcurveto
          hintmask 1000100010000000
          122 callgsubr
          hintmask 0100001000000000
          20 7 0 7 35 hvcurveto
          169 callgsubr
          hintmask 1000110100000000
          169 callsubr
          hintmask 0000001000000000
          44 10 -15 -96 -16 hvcurveto
          hintmask 0000010000000000
          endchar
        </CharString>
        <CharString name="Oacute">
          175 callgsubr
          146 -20 hstemhm
          hintmask 11000000
          -106 callsubr
          hintmask 00110000
          63 463 -104 callsubr
        </CharString>
        <CharString name="Obreve">
          79 callgsubr
          51 78 48 -20 hstemhm
          hintmask 11000000
          -106 callsubr
          hintmask 00110000
          129 447 -90 callgsubr
        </CharString>
        <CharString name="Ocaron">
          79 callgsubr
          155 -20 -14 callgsubr
          95 424 -100 callgsubr
        </CharString>
        <CharString name="Ocircumflex">
          79 callgsubr
          62 -21 -14 callgsubr
          89 388 -107 callsubr
          endchar
        </CharString>
        <CharString name="Ocircumflexacute">
          79 callgsubr
          62 -21 280 -20 hstemhm
          hintmask 11000000
          -106 callsubr
          hintmask 00110000
          89 388 -107 callsubr
          -6 199 -69 callgsubr
          226 callsubr
          rlinecurve
          endchar
        </CharString>
        <CharString name="Ocircumflexdotbelow">
          95 callgsubr
          71 112 callgsubr
          62 -21 133 callgsubr
          hintmask 01110000
          -106 callsubr
          89 388 -107 callsubr
          hintmask 10001000
          -232 -840 -103 callsubr
        </CharString>
        <CharString name="Ocircumflexgrave">
          79 callgsubr
          62 -21 -14 callgsubr
          89 388 -107 callsubr
          -16 141 rmoveto
          -9 -1 -15 -37 -31 hhcurveto
          -8 -6 2 3 -6 hvcurveto
          -120 -63 callgsubr
        </CharString>
        <CharString name="Ocircumflexhookabove">
          79 callgsubr
          53 147 callgsubr
          308 127 callsubr
          hintmask 1100000100000000
          -106 callsubr
          hintmask 0010000001000000
          89 388 -4 callsubr
        </CharString>
        <CharString name="Ocircumflextilde">
          79 callgsubr
          62 -21 154 163 callsubr
          hintmask 11000000
          -106 callsubr
          hintmask 00101000
          89 388 -1 callgsubr
        </CharString>
        <CharString name="Odblgrave">
          175 callgsubr
          152 -20 hstemhm
          hintmask 11000000
          -106 callsubr
          hintmask 00110000
          118 405 -89 callgsubr
        </CharString>
        <CharString name="Odieresis">
          79 callgsubr
          41 236 callsubr
          hintmask 11000000
          -106 callsubr
          hintmask 00111000
          -104 401 -98 callgsubr
          endchar
        </CharString>
        <CharString name="Odotbelow">
          95 callgsubr
          71 112 callgsubr
          133 callgsubr
          hintmask 01100000
          -106 callsubr
          hintmask 10010000
          -143 -452 -103 callsubr
        </CharString>
        <CharString name="Ograve">
          175 callgsubr
          146 -20 hstemhm
          hintmask 11000000
          -106 callsubr
          hintmask 00110000
          53 405 -86 callsubr
        </CharString>
        <CharString name="Ohookabove">
          79 callgsubr
          73 134 callgsubr
          297 132 callsubr
          19 74 hintmask 1100000000000000
          -106 callsubr
          hintmask 0001010010000000
          64 514 -24 callsubr
          33 12 -12 -6 -11 hvcurveto
          hintmask 0000000100000000
          47 callgsubr
          hintmask 0000001000000000
          -3 -18 rlineto
          hintmask 0010100000000000
          71 callsubr
          hintmask 0000001000000000
          72 callgsubr
          hintmask 0000000110000000
          -36 callsubr
        </CharString>
        <CharString name="Ohorn">
          79 callgsubr
          86 -20 135 callgsubr
          hintmask 11101010
          -88 callsubr
          hintmask 01010100
          22 callgsubr
          endchar
        </CharString>
        <CharString name="Ohornacute">
          175 callgsubr
          35 -20 131 -20 135 callgsubr
          hintmask 1101001010000000
          -88 callsubr
          hintmask 0100010100000000
          22 callgsubr
          hintmask 0010100100000000
          35 459 -104 callsubr
        </CharString>
        <CharString name="Ohorndotbelow">
          95 callgsubr
          71 112 callgsubr
          86 226 callgsubr
          -56 111 -80 111 56 82 0 82 hintmask 0111001010000000
          -88 callsubr
          hintmask 0010010100000000
          22 callgsubr
          hintmask 1000100000000000
          -142 -456 -103 callsubr
        </CharString>
        <CharString name="Ohorngrave">
          175 callgsubr
          35 -20 131 -20 135 callgsubr
          hintmask 1101001010000000
          -88 callsubr
          hintmask 0100010100000000
          22 callgsubr
          hintmask 0010100000000000
          25 401 -86 callsubr
        </CharString>
        <CharString name="Ohornhookabove">
          79 callgsubr
          73 -21 34 -20 156 70 hstemhm
          241 111 -80 111 -86 132 callsubr
          19 74 -65 82 0 82 hintmask 1101001000010100
          -88 callsubr
          hintmask 0100010000001000
          22 callgsubr
          hintmask 0000100010010000
          65 510 -24 callsubr
          33 12 -12 -6 -11 hvcurveto
          hintmask 0000000000100000
          47 callgsubr
          hintmask 0000000001000000
          -3 -18 rlineto
          hintmask 0010000100000000
          71 callsubr
          hintmask 0000000001000000
          72 callgsubr
          hintmask 0000000000110000
          -36 callsubr
        </CharString>
        <CharString name="Ohorntilde">
          79 callgsubr
          41 79 -25 79 135 callgsubr
          hintmask 11000101
          -88 callsubr
          hintmask 01001010
          22 callgsubr
          hintmask 00010000
          99 439 -86 callgsubr
        </CharString>
        <CharString name="Ohungarumlaut">
          175 callgsubr
          152 -20 hstemhm
          hintmask 11000000
          -106 callsubr
          hintmask 00110000
          -64 468 rmoveto
          -54 callsubr
          194 hmoveto
          -54 callsubr
          endchar
        </CharString>
        <CharString name="Omacron">
          79 callgsubr
          61 77 -14 callgsubr
          135 407 rmoveto
          38 6 -26 1 -20 hhcurveto
          -290 hlineto
          -19 -29 -56 callsubr
        </CharString>
        <CharString name="Omega">
          -5 callsubr
        </CharString>
        <CharString name="Omicron">
          79 callgsubr
          hstem
          -106 callsubr
          endchar
        </CharString>
        <CharString name="Oogonek">
          -198 68 119 112 callgsubr
          hstemhm
          273 83 -76 73 hintmask 10110000
          82 callsubr
          hintmask 11001000
          -11 6 -28 -4 96 callgsubr
          23 32 28 21 163 4 29 36 46 276 rrcurveto
          -82 9 rmoveto
          -10 -60 -11 -69 -20 -52 rrcurveto
          hintmask 01010000
          -51 -18 -27 -18 -81 hhcurveto
          -80 -20 18 46 -4 hvcurveto
          -4 48 15 85 8 53 10 56 10 62 16 44 rrcurveto
          hintmask 00101000
          61 25 30 10 74 hhcurveto
          68 32 -7 -50 5 hvcurveto
          4 -45 -12 -72 -10 -59 rrcurveto
          endchar
        </CharString>
        <CharString name="Oogonekacute">
          -198 68 119 112 callgsubr
          72 151 callsubr
          273 83 -76 73 hintmask 10100100
          82 callsubr
          hintmask 11000010
          -11 6 -28 -4 96 callgsubr
          23 32 28 21 163 4 29 36 46 276 rrcurveto
          -82 9 rmoveto
          -10 -60 -11 -69 -20 -52 rrcurveto
          hintmask 01000100
          -51 -18 -27 -18 -81 hhcurveto
          -80 -20 18 46 -4 hvcurveto
          -4 48 15 85 8 53 10 56 10 62 16 44 rrcurveto
          hintmask 00100010
          61 25 30 10 74 hhcurveto
          68 32 -7 -50 5 hvcurveto
          4 -45 -12 -72 -10 -59 rrcurveto
          hintmask 00011000
          63 463 -104 callsubr
        </CharString>
        <CharString name="Orogate">
          522 305 rmoveto
          45 269 -13 43 -150 4 20 122 222 callgsubr
          -128 -151 -4 -27 -42 -45 -270 rlinecurve
          -45 -269 13 -42 150 -4 -20 -122 233 callsubr
          22 128 150 4 28 42 45 269 rlinecurve
          -82 9 rmoveto
          -10 -60 -11 -69 -20 -52 rrcurveto
          -51 -18 -27 -18 -81 hhcurveto
          -80 -20 18 46 -4 hvcurveto
          -4 48 15 85 8 53 10 56 10 62 16 44 rrcurveto
          61 25 30 10 74 hhcurveto
          68 32 -7 -50 5 hvcurveto
          4 -45 -12 -72 -10 -59 rrcurveto
          endchar
        </CharString>
        <CharString name="Oslash">
          -62 -21 72 112 callgsubr
          72 172 callgsubr
          hintmask 11111001
          -32 callgsubr
          hintmask 00000110
          172 callsubr
          hintmask 00000101
          130 callsubr
          hintmask 00101010
          89 callgsubr
          endchar
        </CharString>
        <CharString name="Oslash.dup">
          -62 -21 72 112 callgsubr
          72 172 callgsubr
          hintmask 11111001
          -32 callgsubr
          hintmask 00000110
          172 callsubr
          hintmask 00000101
          130 callsubr
          hintmask 00101010
          89 callgsubr
          endchar
        </CharString>
        <CharString name="Oslashacute">
          -62 -21 72 112 callgsubr
          72 -21 21 -20 145 172 callgsubr
          hintmask 1110101001000000
          -32 callgsubr
          hintmask 0000000110000000
          172 callsubr
          hintmask 0000000101000000
          130 callsubr
          hintmask 0010001010000000
          89 callgsubr
          hintmask 0001010000000000
          100 231 -104 callsubr
        </CharString>
        <CharString name="Otilde">
          79 callgsubr
          41 163 callsubr
          hintmask 11000000
          -106 callsubr
          hintmask 00010000
          127 443 -86 callgsubr
        </CharString>
        <CharString name="P">
          22 callsubr
        </CharString>
        <CharString name="Phi">
          0 75 77 75 157 75 77 75 hstemhm
          89 80 65 83 -80 80 -71 83 -31 83 -71 80 -80 83 64 80 hintmask 0010000010000000
          537 305 rmoveto
          12 75 -65 66 -103 13 rrcurveto
          hintmask 0001000000100000
          12 77 rlineto
          32 hlineto
          18 31 92 callsubr
          -18 hhcurveto
          -147 hlineto
          hintmask 0001001000000000
          -94 callsubr
          29 -10 callsubr
          hintmask 0001000001000000
          32 hlineto
          hintmask 0010100010000000
          -12 -77 -112 -13 -85 -68 -12 -72 rlinecurve
          hintmask 0100000100000000
          -13 -76 67 -66 103 -12 rrcurveto
          hintmask 1000010000000000
          -12 -77 rlineto
          -32 6 callgsubr
          104 callgsubr
          147 hlineto
          hintmask 1000000001000000
          18 194 callsubr
          -18 hhcurveto
          hintmask 1000001000000000
          -32 hlineto
          hintmask 0110100100010000
          12 77 112 14 84 68 12 71 rlinecurve
          -80 1 rmoveto
          -7 -40 -51 -29 -55 -10 26 157 rcurveline
          55 -10 38 -31 -6 -37 rrcurveto
          -200 -79 rmoveto
          -59 11 -35 32 6 35 6 38 48 31 60 10 rrcurveto
          endchar
        </CharString>
        <CharString name="Pi">
          111 callgsubr
          97 83 -7 83 114 83 -7 83 hintmask 10001000
          510 37 rmoveto
          -67 callsubr
          -17 hlineto
          hintmask 01010100
          104 callsubr
          17 -60 callsubr
          -390 -53 callgsubr
          17 hlineto
          hintmask 10100000
          -7 callsubr
          -17 hlineto
          -19 -29 -1 -37 -6 hvcurveto
          -36 -6 29 8 callsubr
          hintmask 01010100
          104 callsubr
          190 hlineto
          hintmask 10001000
          -76 -461 1 callgsubr
          endchar
        </CharString>
        <CharString name="Psi">
          0 75 336 75 50 75 hstem
          234 83 -70 83 -70 83 cntrmask 00011100
          563 448 rmoveto
          38 6 -31 0 -12 hhcurveto
          -75 -17 -77 -41 -7 hvcurveto
          -8 -48 -16 -64 -60 -24 50 304 rcurveline
          26 hlineto
          18 160 callsubr
          -29 -12 callgsubr
          -135 -49 callsubr
          26 hlineto
          -50 -304 -52 23 3 62 9 52 rlinecurve
          54 9 -1 63 -68 hhcurveto
          -12 -31 0 -38 -6 hvcurveto
          -5 -29 20 -5 10 -3 7 -1 -5 -31 -3 -22 -12 -75 11 -105 113 -24 -13 -78 rcurveline
          -26 -85 callsubr
          18 hhcurveto
          135 -60 callsubr
          -26 hlineto
          13 78 121 24 44 102 15 87 rlinecurve
          2 12 5 32 9 1 10 3 22 5 5 29 rrcurveto
          endchar
        </CharString>
        <CharString name="Q">
          -114 -21 124 75 0 75 408 75 hstemhm
          104 83 39 83 130 83 hintmask 11011110
          522 305 rmoveto
          290 48 -18 27 -186 hhcurveto
          -186 -28 -26 -291 -48 hvcurveto
          -290 -48 18 -26 186 hhcurveto
          50 1 39 -110 rlineto
          -14 8 11 -1 19 hhcurveto
          9 hlineto
          19 21 2 24 4 hvcurveto
          4 -13 39 -7 23 vhcurveto
          -20 51 43 19 24 36 22 78 rlinecurve
          14 53 11 66 8 45 rrcurveto
          -83 1 rmoveto
          -29 -175 -18 -31 -21 -14 -29 77 rcurveline
          18 -8 -1 1 -24 hhcurveto
          -11 hlineto
          -18 -21 -2 -24 -4 hvcurveto
          hintmask 00111110
          -1 -6 0 -4 3 -7 27 -75 rcurveline
          -19 hlineto
          -81 -15 25 49 -1 129 callsubr
          endchar
        </CharString>
        <CharString name="R">
          -88 callgsubr
          endchar
        </CharString>
        <CharString name="Racute">
          -88 callgsubr
          hintmask 11100000
          76 338 -104 callsubr
        </CharString>
        <CharString name="Rcaron">
          -88 callgsubr
          hintmask 11100000
          108 299 -100 callgsubr
        </CharString>
        <CharString name="Rcedilla">
          37 callsubr
          -59 119 -79 -46 callgsubr
          hintmask 1111001000000000
          81 callgsubr
          18 111 callsubr
          hintmask 1111010100000000
          -33 callgsubr
          -112 -536 24 callgsubr
          hintmask 1110010000000000
          -97 callsubr
        </CharString>
        <CharString name="Rcommaaccent">
          37 callsubr
          -59 119 -79 -46 callgsubr
          hintmask 1111001000000000
          81 callgsubr
          18 111 callsubr
          hintmask 1111010100000000
          -33 callgsubr
          hintmask 1110010000000000
          -112 -536 rmoveto
          50 8 -27 30 -36 hhcurveto
          -97 callsubr
        </CharString>
        <CharString name="Rdblgrave">
          -88 callgsubr
          hintmask 11100000
          102 280 -89 callgsubr
        </CharString>
        <CharString name="Rdotaccent">
          73 callsubr
          10 114 -89 83 -9 83 cntrmask 1110000000000000
          hintmask 1110000100000000
          539 98 rmoveto
          39 7 -28 0 -13 hhcurveto
          -13 -29 0 -49 -8 hvcurveto
          -11 -2 -5 -13 -7 hhcurveto
          -20 7 42 47 8 hvcurveto
          hintmask 1110001000000000
          10 63 1 8 -5 24 -6 24 -14 19 -12 12 rrcurveto
          hintmask 1110100010000000
          -48 callgsubr
          hintmask 1111010100000000
          81 callgsubr
          18 29 1 36 6 hvcurveto
          -16 callsubr
          hintmask 1110010010000000
          63 hlineto
          84 33 -53 -44 -8 hvcurveto
          hintmask 1110001000000000
          15 292 -103 callsubr
        </CharString>
        <CharString name="Rdotbelow">
          37 callsubr
          -72 114 -61 -46 callgsubr
          hintmask 1111010000000000
          81 callgsubr
          hintmask 1111001100000000
          18 29 1 36 6 hvcurveto
          -33 callgsubr
          hintmask 1110010000000000
          -130 -577 -103 callsubr
        </CharString>
        <CharString name="Rdotbelowmacron">
          37 callsubr
          -72 114 -61 -46 callgsubr
          hintmask 1111010000000000
          81 callgsubr
          hintmask 1111001100000000
          18 29 1 36 6 hvcurveto
          -33 callgsubr
          -130 -577 rmoveto
          224 callsubr
          hintmask 1110010000000000
          -99 callgsubr
          hintmask 1110000000000000
          278 859 rmoveto
          38 6 -26 1 -20 hhcurveto
          -290 hlineto
          -19 -29 -56 callsubr
        </CharString>
        <CharString name="Rho">
          22 callsubr
        </CharString>
        <CharString name="S">
          -11 208 callgsubr
          220 78 -65 78 hintmask 00111010
          -81 callsubr
          hintmask 11000100
          -65 callsubr
          endchar
        </CharString>
        <CharString name="Sacute">
          -11 128 callgsubr
          72 -21 146 -20 165 callsubr
          hintmask 0011001010000000
          -81 callsubr
          hintmask 1100000100000000
          -65 callsubr
          hintmask 0000110000000000
          1 607 -104 callsubr
        </CharString>
        <CharString name="Scaron">
          -11 128 callgsubr
          155 -20 165 callsubr
          hintmask 00110101
          -81 callsubr
          hintmask 11000010
          -65 callsubr
          hintmask 00001000
          33 568 -100 callgsubr
        </CharString>
        <CharString name="Scedilla">
          -213 76 126 75 26 75 -75 76 190 75 116 75 hstemhm
          78 83 -35 78 -43 78 -52 78 0 78 -25 83 23 78 -65 78 hintmask 0000110100100100
          -81 callsubr
          hintmask 0110001000001000
          25 -5 74 -18 -13 -79 rrcurveto
          -48 -8 -49 -53 -72 hhcurveto
          -25 -43 4 22 -32 hvcurveto
          -38 28 2 38 2 16 rrcurveto
          20 2 3 21 -39 hhcurveto
          hintmask 0101001000000000
          -41 -4 -24 -23 -4 hvcurveto
          -22 -129 rlineto
          -19 -3 -4 -29 36 hhcurveto
          22 11 12 28 14 hvcurveto
          hintmask 0000000010100000
          27 -19 37 -13 43 -5 -3 -18 rcurveline
          -4 -24 -4 -23 37 -2 rrcurveto
          hintmask 1000000001011000
          37 -2 19 -12 -3 -17 rrcurveto
          -31 -5 -91 0 -35 hhcurveto
          -43 -23 -3 -35 -6 hvcurveto
          -29 -5 18 -9 18 hhcurveto
          96 142 3 104 17 hvcurveto
          7 38 -19 44 -63 17 95 20 68 77 13 80 rrcurveto
          endchar
        </CharString>
        <CharString name="Scircumflex">
          -11 128 callgsubr
          62 -21 165 callsubr
          hintmask 00110101
          -81 callsubr
          hintmask 11000010
          -65 callsubr
          hintmask 00001000
          27 532 -107 callsubr
          endchar
        </CharString>
        <CharString name="Sdotbelow">
          95 callgsubr
          71 208 callgsubr
          -21 114 127 78 -65 78 hintmask 0001110010000000
          -81 callsubr
          hintmask 0110000100000000
          -65 callsubr
          hintmask 1000001000000000
          -205 -308 -103 callsubr
        </CharString>
        <CharString name="Sigma">
          0 77 459 75 hstemhm
          423 83 -21 83 hintmask 11100000
          494 48 rmoveto
          12 73 rlineto
          22 4 3 26 -40 hhcurveto
          -41 -5 -25 -23 -4 hvcurveto
          -7 -44 rlineto
          -250 hlineto
          151 203 12 16 1 3 2 15 rlinecurve
          -94 222 rlineto
          254 hlineto
          hintmask 11010000
          -7 -44 -32 callsubr
          65 callsubr
          -353 hlineto
          -19 -29 -1 -37 -6 hvcurveto
          -1 -6 -2 -7 7 -14 103 -241 rcurveline
          -183 -244 -12 -16 -1 -3 -1 -7 rlinecurve
          -33 -6 32 -2 16 hhcurveto
          353 205 callgsubr
        </CharString>
        <CharString name="T">
          111 callgsubr
          106 83 45 161 callsubr
          hintmask 01101000
          -62 callgsubr
          114 hlineto
          hintmask 10010000
          -7 callsubr
          -43 -96 callgsubr
          28 -1 19 hhcurveto
          169 hlineto
          hintmask 10000100
          -61 callgsubr
          -43 hlineto
          hintmask 01001010
          104 callsubr
          113 180 callgsubr
        </CharString>
        <CharString name="T_uni0303">
          200 callgsubr
          163 callsubr
          106 83 45 161 callsubr
          hintmask 0100101000000000
          -62 callgsubr
          114 hlineto
          hintmask 1000010000000000
          -7 callsubr
          -43 -96 callgsubr
          28 -1 19 hhcurveto
          169 hlineto
          hintmask 1000000100000000
          -61 callgsubr
          -43 hlineto
          hintmask 0100001010000000
          104 callsubr
          113 hlineto
          -7 -44 -32 callsubr
          hintmask 0001000000000000
          -15 265 -59 callsubr
        </CharString>
        <CharString name="T_uni0308">
          200 callgsubr
          103 hstemhm
          106 83 43 104 -102 176 callsubr
          27 104 -32 83 hintmask 0101001000000000
          -62 callgsubr
          114 hlineto
          hintmask 1000010000000000
          -7 callsubr
          -43 -96 callgsubr
          28 -1 19 hhcurveto
          169 hlineto
          hintmask 1000000100000000
          -61 callgsubr
          -43 hlineto
          hintmask 0100001001000000
          104 callsubr
          113 hlineto
          -7 -44 -32 callsubr
          hintmask 0010100010000000
          -246 223 -98 callgsubr
          endchar
        </CharString>
        <CharString name="Tau">
          111 callgsubr
          106 83 45 161 callsubr
          hintmask 01101000
          -62 callgsubr
          114 hlineto
          hintmask 10010000
          -7 callsubr
          -43 -96 callgsubr
          28 -1 19 hhcurveto
          169 hlineto
          hintmask 10000100
          -61 callgsubr
          -43 hlineto
          hintmask 01001010
          104 callsubr
          113 180 callgsubr
        </CharString>
        <CharString name="Tcaron">
          166 callgsubr
          106 83 45 161 callsubr
          hintmask 01010100
          -62 callgsubr
          114 hlineto
          hintmask 10001000
          -7 callsubr
          -43 -96 callgsubr
          28 -1 19 hhcurveto
          169 hlineto
          hintmask 10000010
          -61 callgsubr
          -43 hlineto
          hintmask 01000101
          104 callsubr
          113 hlineto
          -7 -44 -32 callsubr
          hintmask 00100000
          -47 246 -100 callgsubr
        </CharString>
        <CharString name="Tcedilla">
          -206 76 130 60 callsubr
          hstemhm
          106 83 45 83 -16 82 -73 83 -76 83 99 83 hintmask 0011001000000000
          -62 callgsubr
          114 hlineto
          hintmask 0100100000000000
          -7 callsubr
          -43 -96 callgsubr
          28 -1 19 hhcurveto
          43 hlineto
          -4 -19 -4 -23 -2 -23 37 -2 rlinecurve
          hintmask 1100010000000000
          64 callsubr
          238 callgsubr
          6 37 -17 44 -61 17 rrcurveto
          36 hlineto
          hintmask 0100000100000000
          -61 callgsubr
          -43 hlineto
          hintmask 0010001010000000
          104 callsubr
          113 180 callgsubr
        </CharString>
        <CharString name="Tdotbelow">
          74 callgsubr
          hstemhm
          106 83 -6 114 -63 161 callsubr
          hintmask 0011001000000000
          -62 callgsubr
          114 hlineto
          hintmask 0100010000000000
          -7 callsubr
          -43 -96 callgsubr
          28 -1 19 hhcurveto
          169 hlineto
          hintmask 0100000100000000
          -61 callgsubr
          -43 hlineto
          hintmask 0010001010000000
          104 callsubr
          113 hlineto
          -7 -44 -32 callsubr
          hintmask 1000100000000000
          -285 -630 -103 callsubr
        </CharString>
        <CharString name="Theta">
          -11 75 201 81 201 75 hstem
          104 83 252 83 cntrmask 11100000
          522 305 rmoveto
          290 48 -18 27 -186 hhcurveto
          -186 -28 -26 -291 -48 hvcurveto
          -290 -48 18 -26 186 193 callgsubr
          -83 1 rmoveto
          -9 -54 -12 -75 -18 -46 rrcurveto
          -50 -20 -23 -17 -84 hhcurveto
          -81 -24 15 59 129 callsubr
          -27 -23 rmoveto
          8 45 rlineto
          24 4 4 24 -42 hhcurveto
          -12 -23 0 -30 -10 hvcurveto
          -42 hlineto
          29 -22 1 -13 -42 -4 -24 -24 -4 vhcurveto
          -8 -45 rlineto
          -24 -4 -4 -24 42 hhcurveto
          12 23 0 30 10 hvcurveto
          42 hlineto
          -29 22 -1 13 42 4 24 24 4 vhcurveto
          endchar
        </CharString>
        <CharString name="Thorn">
          0 75 45 75 222 75 44 75 hstem
          523 306 rmoveto
          95 16 -60 91 -117 hhcurveto
          -114 hlineto
          7 44 rlineto
          17 hlineto
          -61 callgsubr
          -116 -53 callgsubr
          16 202 callgsubr
          -16 -49 callsubr
          116 hlineto
          18 28 -82 callgsubr
          217 callgsubr
          -19 hhcurveto
          -17 hlineto
          7 45 rlineto
          114 hlineto
          118 89 91 95 16 hvcurveto
          -82 hmoveto
          -49 -8 -50 -62 -88 hhcurveto
          -95 hlineto
          37 222 rlineto
          95 hlineto
          88 29 -63 -48 -8 hvcurveto
          endchar
        </CharString>
        <CharString name="Tlinebelow">
          245 callsubr
          106 83 45 161 callsubr
          hintmask 00110100
          -62 callgsubr
          114 hlineto
          hintmask 01001000
          -7 callsubr
          -43 -96 callgsubr
          28 -1 19 hhcurveto
          169 hlineto
          hintmask 01000010
          -61 callgsubr
          -43 hlineto
          hintmask 00100101
          104 callsubr
          113 hlineto
          -7 -44 -32 callsubr
          hintmask 10000000
          -152 -642 rmoveto
          38 6 -27 1 -20 hhcurveto
          -290 hlineto
          -19 -28 -56 callsubr
        </CharString>
        <CharString name="U">
          119 callsubr
          83 callsubr
          131 83 -29 83 hintmask 01000010
          617 574 rmoveto
          -95 callsubr
          hintmask 10001100
          -44 callgsubr
          hintmask 01010000
          54 325 rlineto
          21 hlineto
          18 31 1 37 6 hvcurveto
          -95 callsubr
          hintmask 10100100
          -51 callgsubr
          hintmask 01000010
          -11 callsubr
          endchar
        </CharString>
        <CharString name="U_uni032F">
          -192 -21 48 78 76 149 callsubr
          83 callsubr
          131 83 -29 83 hintmask 0001000010000000
          617 574 rmoveto
          -95 callsubr
          hintmask 0010001100000000
          -44 callgsubr
          hintmask 0001010000000000
          54 325 rlineto
          21 hlineto
          18 31 1 37 6 hvcurveto
          -95 callsubr
          hintmask 0010100100000000
          -51 callgsubr
          hintmask 0001000010000000
          -11 callsubr
          hintmask 1100000000000000
          -204 -749 -21 callgsubr
        </CharString>
        <CharString name="Uacute">
          197 callgsubr
          146 -20 -92 callsubr
          hintmask 0011000000000000
          -114 203 -104 callsubr
        </CharString>
        <CharString name="Ubreve">
          119 callsubr
          62 78 48 -20 -92 callsubr
          hintmask 0011000000000000
          -48 187 -90 callgsubr
        </CharString>
        <CharString name="Ucaron">
          119 callsubr
          166 -20 83 callsubr
          131 83 -29 83 hintmask 01000001
          617 574 rmoveto
          -95 callsubr
          hintmask 10000110
          -44 callgsubr
          hintmask 01001000
          54 325 rlineto
          21 hlineto
          18 31 1 37 6 hvcurveto
          -95 callsubr
          hintmask 10010010
          -51 callgsubr
          hintmask 01000001
          -11 callsubr
          hintmask 00100000
          -82 164 -100 callgsubr
        </CharString>
        <CharString name="Ucircumflex">
          119 callsubr
          73 -21 83 callsubr
          131 83 -29 83 hintmask 01000001
          617 574 rmoveto
          -95 callsubr
          hintmask 10000110
          -44 callgsubr
          hintmask 01001000
          54 325 rlineto
          21 hlineto
          18 31 1 37 6 hvcurveto
          -95 callsubr
          hintmask 10010010
          -51 callgsubr
          hintmask 01000001
          -11 callsubr
          hintmask 00100000
          -88 128 -107 callsubr
          endchar
        </CharString>
        <CharString name="Udblgrave">
          197 callgsubr
          152 -20 -92 callsubr
          hintmask 0011000010000000
          -59 145 -89 callgsubr
        </CharString>
        <CharString name="Udieresis">
          225 callsubr
          103 142 callsubr
          hintmask 0100000001000000
          617 574 rmoveto
          -95 callsubr
          hintmask 1000010100000000
          -44 callgsubr
          hintmask 0100100000000000
          54 325 rlineto
          21 hlineto
          18 31 1 37 6 hvcurveto
          -95 callsubr
          hintmask 1001000100000000
          -51 callgsubr
          hintmask 0100000001000000
          -11 callsubr
          hintmask 0010001010000000
          27 callgsubr
          endchar
        </CharString>
        <CharString name="Udieresisacute">
          -26 callsubr
          -2 216 -104 callsubr
        </CharString>
        <CharString name="Udieresiscaron">
          225 callsubr
          103 165 190 callgsubr
          hintmask 0100000000100000
          617 574 rmoveto
          -95 callsubr
          hintmask 1000001010000000
          -44 callgsubr
          hintmask 0100010000000000
          54 325 rlineto
          21 hlineto
          18 31 1 37 6 hvcurveto
          -95 callsubr
          hintmask 1000100010000000
          -51 callgsubr
          hintmask 0100000000100000
          -11 callsubr
          hintmask 0011000101000000
          27 callgsubr
          30 177 -100 callgsubr
        </CharString>
        <CharString name="Udieresisgrave">
          -26 callsubr
          -12 158 -86 callsubr
        </CharString>
        <CharString name="Udotbelow">
          95 callgsubr
          71 149 callsubr
          133 callsubr
          -61 114 -107 83 131 83 -29 83 hintmask 0010000010000000
          617 574 rmoveto
          -95 callsubr
          hintmask 0100001100000000
          -44 callgsubr
          hintmask 0010100000000000
          54 325 rlineto
          21 hlineto
          18 31 1 37 6 hvcurveto
          -95 callsubr
          hintmask 0101000100000000
          -51 callgsubr
          hintmask 0010000010000000
          -11 callsubr
          hintmask 1000010000000000
          -320 -712 -103 callsubr
        </CharString>
        <CharString name="Ugrave">
          197 callgsubr
          146 -20 -92 callsubr
          hintmask 0011000000000000
          -124 145 -86 callsubr
        </CharString>
        <CharString name="Uhookabove">
          119 callsubr
          84 -21 170 70 83 callsubr
          24 132 callsubr
          -7 83 -57 74 -46 83 hintmask 0100000000000100
          617 574 rmoveto
          -95 callsubr
          hintmask 1000001000010000
          -44 callgsubr
          hintmask 0100010000000000
          54 325 rlineto
          21 hlineto
          18 31 1 37 6 hvcurveto
          -95 callsubr
          hintmask 1000100000010000
          -51 callgsubr
          hintmask 0100000000000100
          -11 callsubr
          hintmask 0001000010001000
          -113 254 -24 callsubr
          33 12 -12 -6 -11 hvcurveto
          hintmask 0000000000100000
          47 callgsubr
          hintmask 0000000001000000
          -3 -18 rlineto
          hintmask 0010000100000000
          71 callsubr
          hintmask 0000000001000000
          72 callgsubr
          hintmask 0000000000101000
          -36 callsubr
        </CharString>
        <CharString name="Uhorn">
          119 callsubr
          97 -20 90 callgsubr
          hintmask 0110000001000000
          -25 callgsubr
          hintmask 1100001010000000
          52 callgsubr
          hintmask 0001010000000000
          85 callgsubr
          hintmask 0100100000000000
          54 329 rlineto
          33 hlineto
          hintmask 0000010000000000
          20 17 16 19 4 hvcurveto
          hintmask 0100101000000000
          29 callgsubr
          hintmask 1001000100000000
          14 callgsubr
          hintmask 0000000010000000
          54 327 rlineto
          hintmask 0000000001000000
          161 callgsubr
          endchar
        </CharString>
        <CharString name="Uhornacute">
          -27 callsubr
          -158 142 -104 callsubr
        </CharString>
        <CharString name="Uhorndotbelow">
          95 callgsubr
          71 149 callsubr
          97 -20 216 callgsubr
          -61 114 -92 113 -28 113 0 84 -30 84 -22 113 hintmask 0011000000010000
          -25 callgsubr
          hintmask 0110000010100000
          52 callgsubr
          hintmask 0000100100000000
          85 callgsubr
          hintmask 0010010000000000
          54 329 rlineto
          33 hlineto
          hintmask 0000000100000000
          20 17 16 19 4 hvcurveto
          hintmask 0010010010000000
          29 callgsubr
          hintmask 0100100001000000
          14 callgsubr
          hintmask 0000000000100000
          54 327 rlineto
          hintmask 0000000000010000
          161 callgsubr
          hintmask 1000001000000000
          -335 -773 -103 callsubr
        </CharString>
        <CharString name="Uhorngrave">
          -27 callsubr
          -168 84 -86 callsubr
        </CharString>
        <CharString name="Uhornhookabove">
          119 callsubr
          84 -21 34 -20 156 70 216 callgsubr
          -39 113 -28 113 -106 132 callsubr
          -8 84 -57 74 -47 84 -22 113 hintmask 010100000000000010000000
          -25 callgsubr
          hintmask 110000001000000100000000
          52 callgsubr
          hintmask 000001010000000000000000
          85 callgsubr
          hintmask 010000100000000000000000
          54 329 rlineto
          33 hlineto
          hintmask 000000010000000000000000
          20 17 16 19 4 hvcurveto
          hintmask 010000101000000000000000
          29 callgsubr
          hintmask 100001000000010000000000
          14 callgsubr
          hintmask 000000000000000100000000
          54 327 rlineto
          hintmask 000000000000000010000000
          161 callgsubr
          hintmask 000010000010001000000000
          -128 193 -24 callsubr
          33 12 -12 -6 -11 hvcurveto
          hintmask 000000000000100000000000
          47 callgsubr
          hintmask 000000000001000000000000
          -3 -18 rlineto
          hintmask 001000000100000000000000
          71 callsubr
          hintmask 000000000001000000000000
          72 callgsubr
          hintmask 000000000000101000000000
          -36 callsubr
        </CharString>
        <CharString name="Uhorntilde">
          225 callsubr
          79 -25 79 90 callgsubr
          hintmask 0100000000100000
          -25 callgsubr
          hintmask 1100000101000000
          52 callgsubr
          hintmask 0000101000000000
          85 callgsubr
          hintmask 0100010000000000
          54 329 rlineto
          33 hlineto
          hintmask 0000001000000000
          20 17 16 19 4 hvcurveto
          hintmask 0100010100000000
          29 callgsubr
          hintmask 1000100010000000
          14 callgsubr
          hintmask 0000000001000000
          54 327 rlineto
          hintmask 0000000000100000
          161 callgsubr
          hintmask 0001000000000000
          -94 122 -59 callsubr
        </CharString>
        <CharString name="Uhungarumlaut">
          197 callgsubr
          152 -20 -92 callsubr
          hintmask 0011000000000000
          -241 208 rmoveto
          -54 callsubr
          194 hmoveto
          -54 callsubr
          endchar
        </CharString>
        <CharString name="Umacron">
          119 callsubr
          72 77 83 callsubr
          131 83 -29 83 hintmask 01000001
          617 574 rmoveto
          -95 callsubr
          hintmask 10000110
          -44 callgsubr
          hintmask 01001000
          54 325 rlineto
          21 hlineto
          18 31 1 37 6 hvcurveto
          -95 callsubr
          hintmask 10010010
          -51 callgsubr
          hintmask 01000001
          -11 callsubr
          hintmask 00100000
          -42 147 rmoveto
          38 6 -26 1 -20 hhcurveto
          -290 hlineto
          -19 -29 -56 callsubr
        </CharString>
        <CharString name="Uogonek">
          -198 68 119 149 callsubr
          83 callsubr
          91 73 -33 83 -29 83 hintmask 0010001010000000
          617 574 rmoveto
          -95 callsubr
          hintmask 0100010100000000
          -44 callgsubr
          hintmask 0010100000000000
          54 325 rlineto
          21 hlineto
          18 31 1 37 6 hvcurveto
          -95 callsubr
          hintmask 1001001000000000
          -54 -329 -18 -108 52 -84 80 -21 rlinecurve
          -29 -25 -24 -33 -5 -33 rrcurveto
          -46 -8 29 -55 66 hhcurveto
          40 43 27 34 31 106 callsubr
          -8 143 callgsubr
          37 23 35 33 21 rrcurveto
          hintmask 0000000100000000
          88 19 82 85 19 109 rrcurveto
          hintmask 0010000010000000
          -11 callsubr
          endchar
        </CharString>
        <CharString name="Upsilon">
          0 75 413 67 0 67 hstemhm
          117 83 34 83 -57 83 -63 83 hintmask 00100100
          569 488 rmoveto
          59 10 -31 75 -76 hhcurveto
          -52 -42 -33 -72 -30 hvcurveto
          77 -6 -33 28 -49 hhcurveto
          hintmask 01010010
          -75 -58 -74 -60 -10 hvcurveto
          -39 -6 30 0 11 hhcurveto
          13 188 callgsubr
          33 6 13 35 31 hhcurveto
          64 -26 -152 -48 -8 hvcurveto
          hintmask 10001000
          -46 -280 rlineto
          -26 -85 callsubr
          18 hhcurveto
          135 -77 callsubr
          hintmask 10000100
          37 6 -28 -12 callgsubr
          hintmask 10001000
          -26 hlineto
          hintmask 00100010
          46 280 rlineto
          49 8 26 151 63 hhcurveto
          32 -1 -38 -28 -4 hvcurveto
          -40 -7 27 0 15 hhcurveto
          hintmask 01000000
          11 30 0 39 6 hvcurveto
          endchar
        </CharString>
        <CharString name="Uring">
          119 callsubr
          12 47 40 47 83 callsubr
          18 56 57 83 -78 56 -7 83 hintmask 0100000000100000
          617 574 rmoveto
          -95 callsubr
          hintmask 1000001010000000
          -44 callgsubr
          hintmask 0100010000000000
          54 325 rlineto
          21 hlineto
          18 31 1 37 6 hvcurveto
          -95 callsubr
          hintmask 1000100010000000
          -51 callgsubr
          hintmask 0100000000100000
          -11 callsubr
          hintmask 0011000101000000
          -208 116 -20 callgsubr
          endchar
        </CharString>
        <CharString name="Utilde">
          225 callsubr
          79 -25 79 -92 callsubr
          hintmask 0001000000000000
          -50 183 -59 callsubr
        </CharString>
        <CharString name="V">
          13 -21 544 75 hstem
          604 144 callsubr
          -100 hlineto
          -17 -30 -1 -36 -6 hvcurveto
          -6 -32 18 -5 33 -1 -173 -425 rcurveline
          -33 425 35 1 18 5 6 32 rlinecurve
          36 201 callgsubr
          -100 hlineto
          -18 -30 -1 -36 -6 hvcurveto
          -34 -6 20 -4 37 hhcurveto
          44 -501 rlineto
          -42 4 18 -1 32 hhcurveto
          30 21 1 41 17 hvcurveto
          210 502 rlineto
          37 22 4 34 6 hvcurveto
          endchar
        </CharString>
        <CharString name="W">
          13 -21 544 75 hstem
          -81 callgsubr
          endchar
        </CharString>
        <CharString name="Wacute">
          13 -21 544 75 83 151 callsubr
          hintmask 11000000
          -81 callgsubr
          hintmask 00110000
          -107 204 -104 callsubr
        </CharString>
        <CharString name="Wcircumflex">
          13 -21 544 75 73 -21 hstemhm
          hintmask 11000000
          -81 callgsubr
          hintmask 00100000
          -81 129 -107 callsubr
          endchar
        </CharString>
        <CharString name="Wdieresis">
          13 -21 544 75 52 236 callsubr
          hintmask 11000000
          -81 callgsubr
          hintmask 00111000
          -274 142 -98 callgsubr
          endchar
        </CharString>
        <CharString name="Wgrave">
          13 -21 544 75 83 151 callsubr
          hintmask 11000000
          -81 callgsubr
          hintmask 00110000
          -117 146 -86 callsubr
        </CharString>
        <CharString name="X">
          0 callgsubr
        </CharString>
        <CharString name="Xi">
          0 73 208 73 184 73 hstem
          580 545 rmoveto
          3 18 -58 callsubr
          -359 hlineto
          -39 -11 -9 -39 -6 hvcurveto
          -3 -18 239 callgsubr
          37 7 18 23 5 hvcurveto
          288 hlineto
          -23 -3 1 -18 37 hhcurveto
          40 5 25 23 4 hvcurveto
          -112 -252 rmoveto
          8 48 rlineto
          24 4 3 23 -41 hhcurveto
          -26 -15 -10 -24 -6 hvcurveto
          -148 hlineto
          24 2 -11 10 -26 hhcurveto
          -41 -5 -23 -24 -4 hvcurveto
          -8 -48 rlineto
          -23 -4 -3 -23 41 hhcurveto
          26 15 9 25 6 hvcurveto
          148 hlineto
          -25 -2 11 -9 26 hhcurveto
          41 5 23 23 4 hvcurveto
          33 -245 rmoveto
          4 23 rlineto
          23 71 callgsubr
          -7 -18 -28 -6 hvcurveto
          -296 hlineto
          28 4 -1 18 -37 hhcurveto
          -40 -5 -25 -23 -4 hvcurveto
          -4 -23 rlineto
          -39 -6 7 -9 39 hhcurveto
          367 205 callgsubr
        </CharString>
        <CharString name="Y">
          0 75 461 75 184 callgsubr
          hintmask 01010000
          -76 callgsubr
          93 -292 rlineto
          hintmask 10100000
          -28 -169 -41 callgsubr
          hintmask 01010000
          35 callgsubr
          endchar
        </CharString>
        <CharString name="Yacute">
          45 callsubr
          83 -21 146 -20 184 callgsubr
          hintmask 01000100
          -76 callgsubr
          93 -292 rlineto
          hintmask 10001000
          -28 -169 -41 callgsubr
          hintmask 01000100
          35 callgsubr
          hintmask 00110000
          -100 204 -104 callsubr
        </CharString>
        <CharString name="Ycircumflex">
          45 callsubr
          73 -21 184 callgsubr
          hintmask 01001000
          -76 callgsubr
          93 -292 rlineto
          hintmask 10010000
          -28 -169 -41 callgsubr
          hintmask 01001000
          35 callgsubr
          hintmask 00100000
          -74 129 -107 callsubr
          endchar
        </CharString>
        <CharString name="Ydieresis">
          200 callgsubr
          103 hstemhm
          232 104 -102 83 -55 83 82 104 hintmask 01000100
          -76 callgsubr
          93 -292 rlineto
          hintmask 10001000
          -28 -169 -41 callgsubr
          hintmask 01000100
          35 callgsubr
          hintmask 00110010
          -267 142 -98 callgsubr
          endchar
        </CharString>
        <CharString name="Ydotbelow">
          74 callgsubr
          133 callgsubr
          -63 83 -55 83 hintmask 00100100
          -76 callgsubr
          93 -292 rlineto
          hintmask 01001000
          -28 -169 -41 callgsubr
          hintmask 00100100
          35 callgsubr
          hintmask 10010000
          -306 -711 -103 callsubr
        </CharString>
        <CharString name="Ygrave">
          45 callsubr
          83 -21 146 -20 184 callgsubr
          hintmask 01000100
          -76 callgsubr
          93 -292 rlineto
          hintmask 10001000
          -28 -169 -41 callgsubr
          hintmask 01000100
          35 callgsubr
          hintmask 00110000
          -110 146 -86 callsubr
        </CharString>
        <CharString name="Yhookabove">
          45 callsubr
          84 -21 170 70 184 callgsubr
          -48 132 callsubr
          19 74 hintmask 0100000010000000
          -76 callgsubr
          hintmask 0000010000000000
          93 -292 rlineto
          hintmask 1000100000000000
          -28 -169 -41 callgsubr
          hintmask 0100010000000000
          35 callgsubr
          hintmask 0001000100100000
          -99 255 -24 callsubr
          101 callsubr
          hintmask 0010001000000000
          71 callsubr
          hintmask 0000000010000000
          72 callgsubr
          hintmask 0000000001100000
          -36 callsubr
        </CharString>
        <CharString name="Ytilde">
          200 callgsubr
          79 -25 79 184 callgsubr
          hintmask 01000100
          -76 callgsubr
          93 -292 rlineto
          hintmask 10001000
          -28 -169 -41 callgsubr
          hintmask 01000100
          35 callgsubr
          hintmask 00010000
          -36 184 -86 callgsubr
        </CharString>
        <CharString name="Z">
          111 callgsubr
          139 83 201 83 -33 83 hintmask 00010000
          491 48 rmoveto
          15 89 rlineto
          hintmask 00001000
          48 callsubr
          hintmask 10010000
          90 callsubr
          hintmask 11101000
          -69 callsubr
          endchar
        </CharString>
        <CharString name="Zacute">
          45 callsubr
          83 151 callsubr
          139 83 201 114 callsubr
          hintmask 10000100
          90 callsubr
          hintmask 11001010
          -69 callsubr
          hintmask 00110000
          12 729 -104 callsubr
        </CharString>
        <CharString name="Zcaron">
          166 callgsubr
          139 83 201 83 -33 83 hintmask 00001000
          491 48 rmoveto
          15 89 rlineto
          hintmask 00000100
          48 callsubr
          hintmask 10001000
          90 callsubr
          hintmask 11010100
          -69 callsubr
          hintmask 00100000
          44 690 -100 callgsubr
        </CharString>
        <CharString name="Zdotaccent">
          45 callsubr
          63 113 hstemhm
          139 83 106 114 -19 114 callsubr
          hintmask 10000100
          90 callsubr
          hintmask 11010010
          -69 callsubr
          hintmask 00101000
          -49 683 -103 callsubr
        </CharString>
        <CharString name="Zdotbelow">
          74 callgsubr
          hstemhm
          139 83 -39 114 126 114 callsubr
          hintmask 01000100
          90 callsubr
          hintmask 01110010
          -69 callsubr
          hintmask 10001000
          -194 -186 -103 callsubr
        </CharString>
        <CharString name="Zeta">
          111 callgsubr
          139 83 201 83 -33 83 hintmask 00010000
          491 48 rmoveto
          15 89 rlineto
          hintmask 00001000
          48 callsubr
          hintmask 10010000
          90 callsubr
          hintmask 11101000
          -69 callsubr
          endchar
        </CharString>
        <CharString name="a">
          63 callsubr
          hstemhm
          -106 callgsubr
          endchar
        </CharString>
        <CharString name="aacute">
          63 callsubr
          66 151 callsubr
          -106 callgsubr
          hintmask 00011000
          99 381 -101 callgsubr
          30 12 7 16 59 callsubr
        </CharString>
        <CharString name="abreve">
          63 callsubr
          55 78 48 -20 hstemhm
          -106 callgsubr
          hintmask 00011000
          166 375 -90 callgsubr
        </CharString>
        <CharString name="abreveacute">
          63 callsubr
          55 78 214 -20 hstemhm
          -106 callgsubr
          hintmask 00011000
          166 375 -103 callgsubr
          -41 162 -101 callgsubr
          226 callsubr
          rlinecurve
          endchar
        </CharString>
        <CharString name="abrevedotbelow">
          234 callsubr
          55 78 48 226 callgsubr
          hintmask 00110010
          -22 callgsubr
          hintmask 01001100
          -16 -36 -42 0 -8 hhcurveto
          -55 -33 29 35 6 hvcurveto
          8 44 84 30 130 5 rrcurveto
          166 375 -103 callgsubr
          hintmask 10000010
          -243 -725 -103 callsubr
        </CharString>
        <CharString name="abrevegrave">
          63 callsubr
          55 78 48 -20 hstemhm
          -106 callgsubr
          hintmask 00011000
          166 375 -103 callgsubr
          -51 104 rmoveto
          -9 -1 -16 -37 -31 hhcurveto
          -8 -5 2 3 -7 hvcurveto
          -119 -63 callgsubr
        </CharString>
        <CharString name="abrevehookabove">
          63 callsubr
          55 78 140 78 0 70 hstemhm
          290 167 callsubr
          hintmask 0110000000000000
          -71 callsubr
          hintmask 0001011000000000
          166 375 10 callsubr
        </CharString>
        <CharString name="abrevetilde">
          63 callsubr
          55 242 callsubr
          -106 callgsubr
          hintmask 00010100
          166 375 5 callgsubr
        </CharString>
        <CharString name="acaron">
          63 callsubr
          192 -20 -47 callgsubr
          140 392 -93 callgsubr
        </CharString>
        <CharString name="acircumflex">
          63 callsubr
          65 -21 -47 callgsubr
          126 308 -96 callsubr
          endchar
        </CharString>
        <CharString name="acircumflexacute">
          63 callsubr
          66 -21 280 -20 hstemhm
          -106 callgsubr
          hintmask 00011000
          126 316 -107 callsubr
          -6 199 -69 callgsubr
          226 callsubr
          rlinecurve
          endchar
        </CharString>
        <CharString name="acircumflexdotbelow">
          234 callsubr
          65 -21 133 callgsubr
          hintmask 00110100
          -22 callgsubr
          hintmask 01001000
          -16 -36 -42 0 -8 hhcurveto
          -55 -33 29 35 6 hvcurveto
          8 44 84 30 130 5 rrcurveto
          126 308 -96 callsubr
          hintmask 10000100
          -203 -658 -103 callsubr
        </CharString>
        <CharString name="acircumflexgrave">
          63 callsubr
          66 -21 -47 callgsubr
          126 316 -107 callsubr
          -16 141 rmoveto
          -9 -1 -15 -37 -31 hhcurveto
          -8 -6 2 3 -6 hvcurveto
          -120 -63 callgsubr
        </CharString>
        <CharString name="acircumflexhookabove">
          63 callsubr
          57 147 callgsubr
          279 127 callsubr
          hintmask 0110000100000000
          -71 callsubr
          hintmask 0001000000100000
          126 316 -63 callsubr
        </CharString>
        <CharString name="acircumflextilde">
          63 callsubr
          66 -21 154 163 callsubr
          -106 callgsubr
          hintmask 00010100
          126 316 -61 callsubr
        </CharString>
        <CharString name="acute">
          497 121 callsubr
          hstem
          471 580 -101 callgsubr
          30 12 7 16 59 callsubr
        </CharString>
        <CharString name="acute.cap">
          513 121 callsubr
          hstem
          473 596 -104 callsubr
        </CharString>
        <CharString name="acute.dup">
          497 121 callsubr
          hstem
          471 580 -101 callgsubr
          30 12 7 16 59 callsubr
        </CharString>
        <CharString name="acute.ts1">
          487 121 callsubr
          hstem
          507 570 -69 callgsubr
          30 12 7 16 59 callsubr
        </CharString>
        <CharString name="adblgrave">
          63 callsubr
          63 215 callgsubr
          -106 callgsubr
          hintmask 00011000
          153 320 rmoveto
          -89 callsubr
        </CharString>
        <CharString name="adieresis">
          63 callsubr
          67 103 hstemhm
          222 104 0 104 -43 104 -106 callgsubr
          hintmask 00011010
          -48 351 79 callsubr
        </CharString>
        <CharString name="adotbelow">
          234 callsubr
          133 callgsubr
          hintmask 00111000
          -22 callgsubr
          hintmask 01000000
          -16 -36 -42 0 -8 hhcurveto
          -55 -33 29 35 6 hvcurveto
          8 44 84 30 130 5 rrcurveto
          hintmask 10001000
          -77 -350 -103 callsubr
        </CharString>
        <CharString name="ae">
          27 callsubr
          hstem
          52 68 vstem
          -66 callgsubr
          endchar
        </CharString>
        <CharString name="ae.dup">
          27 callsubr
          hstem
          52 68 vstem
          -66 callgsubr
          endchar
        </CharString>
        <CharString name="aeacute">
          131 callsubr
          146 -20 hstemhm
          52 68 hintmask 11100100
          -66 callgsubr
          hintmask 00011000
          218 409 -101 callgsubr
          30 12 7 16 59 callsubr
        </CharString>
        <CharString name="agrave">
          63 callsubr
          66 151 callsubr
          -106 callgsubr
          hintmask 00011000
          88 323 -78 callsubr
        </CharString>
        <CharString name="ahookabove">
          63 callsubr
          19 134 callgsubr
          258 108 callsubr
          hintmask 0110000000000000
          -71 callsubr
          hintmask 0000100100000000
          91 384 -10 callgsubr
        </CharString>
        <CharString name="amacron">
          63 callsubr
          80 77 -47 callgsubr
          175 350 -42 callgsubr
        </CharString>
        <CharString name="ampersand">
          -11 75 297 75 -38 75 74 75 hstemhm
          50 81 47 69 -5 70 -70 72 0 72 -51 70 33 69 hintmask 0100000001000000
          558 398 rmoveto
          37 7 -28 -12 callgsubr
          -90 hlineto
          -17 162 callsubr
          -6 -31 17 -6 18 -1 -33 -61 -39 -71 -32 -49 -12 27 -23 52 -8 37 rrcurveto
          hintmask 0001001010000000
          115 103 9 59 4 22 rrcurveto
          64 11 -11 78 -74 hhcurveto
          hintmask 1010110001100000
          -51 -66 -46 -103 -17 hvcurveto
          -7 -42 -2 -54 9 -60 -17 -15 -53 -51 -3 -1 -26 -26 -22 -36 -7 -47 rrcurveto
          -78 -13 36 -74 79 hhcurveto
          50 45 29 35 37 hvcurveto
          -22 15 34 -42 54 hhcurveto
          69 43 71 50 8 hvcurveto
          7 41 -35 -1 0 vvcurveto
          -32 -8 -30 -8 -1 hvcurveto
          -36 -10 -15 -12 -13 hhcurveto
          -31 -24 35 15 -10 hvcurveto
          26 33 25 43 14 24 rrcurveto
          hintmask 0100000000000000
          80 147 rlineto
          25 hlineto
          hintmask 0010000100000000
          18 111 callsubr
          -244 82 rmoveto
          -4 -25 -20 -30 -48 -46 rrcurveto
          hintmask 1011110010000000
          -2 44 6 43 1 7 rrcurveto
          50 8 24 24 19 hhcurveto
          27 -10 -59 -8 -1 hvcurveto
          -67 -367 rmoveto
          -44 -40 -31 -5 -13 hhcurveto
          -39 3 57 23 4 hvcurveto
          7 41 11 13 44 42 17 -50 20 -46 17 -31 rrcurveto
          endchar
        </CharString>
        <CharString name="anglearc">
          100 -21 454 -20 hstemhm
          387 84 -40 84 hintmask 00010000
          508 121 rmoveto
          3 17 -8 14 -12 6 -60 33 rcurveline
          hintmask 01100000
          20 37 13 38 7 40 7 40 -1 38 -8 37 72 33 rcurveline
          14 6 12 14 3 17 rrcurveto
          200 callsubr
          hintmask 11010000
          -7 -6 -1 -4 -7 hvcurveto
          -70 -33 -4 8 -4 7 -5 7 rlinecurve
          10 -5 -11 6 -13 hhcurveto
          -23 -22 -19 -23 -4 hvcurveto
          -2 -9 2 -10 4 -7 4 -7 rcurveline
          -246 -115 -14 -6 -12 -14 -3 -17 rlinecurve
          -3 -17 8 -14 12 -6 208 -115 rcurveline
          -7 -7 -7 -7 -4 -10 -2 -9 rlinecurve
          227 callsubr
          13 13 6 10 9 hvcurveto
          7 7 6 7 7 8 59 -33 rcurveline
          -4 5 6 -1 7 hhcurveto
          23 22 19 23 4 hvcurveto
          -121 185 rmoveto
          -4 -26 -9 -26 -12 -25 -140 77 rcurveline
          166 77 rlineto
          hintmask 00100000
          4 -25 -1 -26 -4 -26 rrcurveto
          endchar
        </CharString>
        <CharString name="angleleft">
          -60 -21 774 -20 hstem
          447 -38 rmoveto
          1 10 -15 35 -9 20 -138 279 rcurveline
          258 314 9 11 7 10 2 10 rlinecurve
          23 3 -14 19 -24 hhcurveto
          -22 -2 -12 -8 -27 -33 -276 -345 rcurveline
          -1 -3 165 -341 0 vvcurveto
          -19 10 12 -23 21 hhcurveto
          23 23 22 21 4 hvcurveto
          endchar
        </CharString>
        <CharString name="angleright">
          -60 -21 774 -20 hstem
          436 305 rmoveto
          -162 345 -15 33 -10 8 -20 2 rlinecurve
          -24 -22 -19 -23 -3 hvcurveto
          -2 -10 3 -10 5 -11 154 -314 rcurveline
          -230 -279 -17 -20 -27 -35 -1 -10 rlinecurve
          -21 -4 15 -22 23 hhcurveto
          21 20 23 19 16 hvcurveto
          0 279 341 1 3 vhcurveto
          endchar
        </CharString>
        <CharString name="aogonek">
          -6 75 -69 69 -69 75 hstem
          -9 callsubr
          endchar
        </CharString>
        <CharString name="aogonekacute">
          -6 75 -69 69 -69 75 hstemhm
          -9 callsubr
          hintmask 11100000
          99 381 -101 callgsubr
          30 12 7 16 59 callsubr
        </CharString>
        <CharString name="aring">
          63 callsubr
          61 47 40 47 hstemhm
          271 56 62 56 -106 callgsubr
          hintmask 00011110
          15 360 0 callsubr
        </CharString>
        <CharString name="aringacute">
          63 callsubr
          61 47 40 47 229 callgsubr
          271 56 62 56 0 56 hintmask 0110000000000000
          -71 callsubr
          hintmask 0001111100000000
          15 360 52 callsubr
          18 7 15 hhcurveto
          15 14 63 callgsubr
          -5 30 -33 51 hhcurveto
          51 42 33 35 5 hvcurveto
          56 190 -69 callgsubr
          rlineto
          hintmask 0000000010000000
          174 callsubr
        </CharString>
        <CharString name="asciicircum">
          527 544 rmoveto
          -146 77 -9 4 -11 0 -9 -4 rlinecurve
          -172 -77 -47 -21 20 -64 45 18 rlinecurve
          154 62 134 -62 40 -18 40 64 -39 21 rlinecurve
          endchar
        </CharString>
        <CharString name="asciitilde">
          239 163 callsubr
          hintmask 01000000
          497 333 rmoveto
          19 3 -15 20 -20 hhcurveto
          -13 -8 -6 -7 -8 callgsubr
        </CharString>
        <CharString name="asciitilde.low">
          0 163 callsubr
          hintmask 01000000
          457 94 rmoveto
          19 3 -15 55 callgsubr
          hintmask 10000000
          -26 -32 -26 -15 -12 hhcurveto
          -5 -7 8 10 -10 hvcurveto
          hintmask 01000000
          14 156 callsubr
          -32 -17 -17 -25 hvcurveto
          -25 -16 -33 -25 -3 -19 rrcurveto
          hintmask 10000000
          -20 -4 15 -19 20 hhcurveto
          13 8 6 7 9 hvcurveto
          hintmask 01000000
          25 32 26 16 12 hhcurveto
          5 8 -9 -10 9 hvcurveto
          hintmask 10000000
          -13 12 17 69 callgsubr
          16 18 26 hvcurveto
          24 16 33 24 4 20 rrcurveto
          endchar
        </CharString>
        <CharString name="asterisk">
          8 callgsubr
        </CharString>
        <CharString name="asterisk.math">
          8 callgsubr
        </CharString>
        <CharString name="at">
          -6 75 34 75 255 75 34 75 hstemhm
          93 70 73 68 -68 72 85 70 -70 72 hintmask 1001100010000000
          496 86 rmoveto
          34 6 -33 1 -12 hhcurveto
          -19 -4 -1 -11 -13 hvcurveto
          -30 -38 -36 -10 -31 hhcurveto
          -102 -73 102 134 22 hvcurveto
          140 23 110 97 97 hhcurveto
          hintmask 0111101100000000
          22 32 -7 -37 16 hvcurveto
          5 -11 -16 5 -17 hhcurveto
          -81 -83 -87 -115 -19 hvcurveto
          -121 -20 59 -82 75 hhcurveto
          50 106 42 176 30 hvcurveto
          65 10 37 231 -177 hhcurveto
          -136 -147 -131 -180 -30 hvcurveto
          hintmask 1100010000000000
          -179 -30 101 -133 140 hhcurveto
          92 95 62 30 5 hvcurveto
          -31 219 rmoveto
          -74 -12 -48 -53 -39 hhcurveto
          hintmask 0010001010000000
          -43 -27 56 71 12 hvcurveto
          76 13 48 52 38 hhcurveto
          41 29 -54 -74 -12 hvcurveto
          endchar
        </CharString>
        <CharString name="atilde">
          63 callsubr
          52 163 callsubr
          -106 callgsubr
          hintmask 00001000
          165 378 -72 callsubr
        </CharString>
        <CharString name="b">
          213 callgsubr
          153 82 hintmask 11110100
          126 callsubr
          -43 -14 -24 -37 hvcurveto
          27 160 15 callsubr
          36 hlineto
          -81 -488 rlineto
          -24 -4 -3 -24 41 hhcurveto
          31 10 14 20 5 hvcurveto
          -32 32 38 -8 125 callsubr
          hintmask 11001100
          107 callgsubr
          121 callgsubr
        </CharString>
        <CharString name="backslash">
          215 callsubr
          hstem
          462 -39 rmoveto
          2 9 -3 11 -2 7 -211 673 rcurveline
          12 -3 -7 19 -26 hhcurveto
          -24 -21 -20 -22 -4 hvcurveto
          -1 -9 3 -11 2 -7 211 -673 rcurveline
          -12 3 6 -19 26 hhcurveto
          24 22 20 22 3 hvcurveto
          endchar
        </CharString>
        <CharString name="baht">
          -70 -21 91 110 callgsubr
          91 -20 hstem
          216 77 -35 82 -35 77 cntrmask 00000111
          513 171 rmoveto
          10 64 -30 61 -65 25 58 26 43 49 9 56 13 74 -46 83 -110 2 9 53 rcurveline
          20 3 -14 18 -21 hhcurveto
          -22 -19 -18 -20 -3 hvcurveto
          -10 -53 rlineto
          -148 109 callgsubr
          28 -1 19 hhcurveto
          18 202 callgsubr
          -18 9 callsubr
          148 hlineto
          -9 -53 rlineto
          -20 -2 13 -18 22 hhcurveto
          21 20 18 21 3 hvcurveto
          9 52 rlineto
          15 hlineto
          115 76 91 80 14 hvcurveto
          -55 280 rmoveto
          -5 -33 -31 -49 -69 -12 29 179 rcurveline
          71 -4 10 -52 -5 -29 rrcurveto
          -183 -96 rmoveto
          -47 hlineto
          30 181 rlineto
          47 hlineto
          128 -364 rmoveto
          -7 -43 -44 -51 -76 -3 34 205 rcurveline
          6 hlineto
          77 17 -67 -41 -7 hvcurveto
          -204 -97 rmoveto
          -47 hlineto
          114 callgsubr
          47 hlineto
          endchar
        </CharString>
        <CharString name="bar">
          215 callsubr
          hstem
          215 84 27 84 vstem
          299 -27 rmoveto
          72 callsubr
          endchar
        </CharString>
        <CharString name="bigcircle">
          0 42 444 41 hstem
          43 42 443 42 vstem
          -37 callgsubr
          endchar
        </CharString>
        <CharString name="blanksymbol">
          213 callgsubr
          -41 83 -67 82 96 82 hintmask 01010100
          126 callsubr
          -43 -14 -24 -37 hvcurveto
          7 39 122 92 10 6 7 11 2 11 rlinecurve
          21 3 -14 17 -21 hhcurveto
          -10 -8 -3 -5 -8 hvcurveto
          hintmask 10110011
          -67 -50 4 21 15 callsubr
          36 hlineto
          -10 -65 -79 -59 -10 -7 -7 -11 -2 -11 rlinecurve
          -21 -4 15 -17 21 hhcurveto
          10 9 4 5 7 hvcurveto
          23 17 -54 -323 rlineto
          -24 -4 -3 -24 41 hhcurveto
          31 10 14 20 5 hvcurveto
          -32 32 38 -8 125 callsubr
          hintmask 10001000
          107 callgsubr
          hintmask 01000011
          121 callgsubr
        </CharString>
        <CharString name="braceleft">
          -81 239 callsubr
          hstem
          cntrmask 11100000
          463 -43 rmoveto
          35 6 -30 2 -11 hhcurveto
          -124 3 4 29 5 29 26 156 rcurveline
          4 25 4 39 -42 30 40 25 19 32 4 24 32 190 rcurveline
          52 10 97 -11 32 hhcurveto
          8 27 7 30 5 hvcurveto
          37 6 -28 1 -21 hhcurveto
          -71 -129 -17 -88 -16 hvcurveto
          -30 -171 -5 -31 -2 -13 -32 -14 rlinecurve
          -14 -37 -48 -1 -21 hhcurveto
          -8 -27 -7 -30 -5 -13 callsubr
          29 -2 12 hhcurveto
          24 -1 99 -4 -5 -44 -27 -162 rcurveline
          -6 -31 -6 -46 48 -31 rrcurveto
          -23 39 53 -7 48 hhcurveto
          21 188 callgsubr
          endchar
        </CharString>
        <CharString name="braceright">
          -81 239 callsubr
          hstem
          314 83 cntrmask 11100000
          521 305 rmoveto
          36 6 -29 2 -12 hhcurveto
          -22 1 -100 4 6 45 27 162 rcurveline
          5 30 6 46 -49 31 rrcurveto
          26 -43 -63 4 -35 hhcurveto
          -20 -29 -1 -37 -6 hvcurveto
          -32 -5 22 -5 17 hhcurveto
          126 -2 -4 -30 -5 -30 -26 -156 rcurveline
          -7 -39 8 -31 32 -23 rrcurveto
          -53 -33 -9 -44 -4 vvcurveto
          -29 -173 -5 -27 -6 -29 -132 -2 rlinecurve
          -8 -27 -7 -30 -5 -29 callgsubr
          28 -1 20 hhcurveto
          89 118 39 66 11 hvcurveto
          30 171 5 31 2 13 32 14 rlinecurve
          14 37 46 1 22 hhcurveto
          8 27 7 30 5 hvcurveto
          endchar
        </CharString>
        <CharString name="bracketleft">
          -81 75 623 75 hstem
          480 -44 rmoveto
          -67 callsubr
          -141 hlineto
          104 623 rlineto
          141 hlineto
          18 28 -62 callsubr
          -177 hlineto
          -38 -9 -11 -37 -7 hvcurveto
          -113 -677 rlineto
          -36 -6 5 -12 39 hhcurveto
          177 hlineto
          18 111 callsubr
          endchar
        </CharString>
        <CharString name="bracketright">
          -81 75 623 75 hstem
          300 -33 rmoveto
          113 677 196 callgsubr
          -177 hlineto
          -18 -28 -18 callsubr
          19 hhcurveto
          141 hlineto
          -104 -623 rlineto
          -141 240 callsubr
          -37 -6 26 -1 19 hhcurveto
          177 hlineto
          38 10 11 37 6 hvcurveto
          endchar
        </CharString>
        <CharString name="breve">
          486 78 48 -20 hstem
          538 574 -90 callgsubr
        </CharString>
        <CharString name="breve.cap">
          492 78 48 -20 hstem
          539 580 -90 callgsubr
        </CharString>
        <CharString name="breve.ts1">
          484 79 49 -20 hstem
          558 574 rmoveto
          20 3 -8 18 -27 hhcurveto
          -14 -13 -6 -11 -8 hvcurveto
          -5 -6 1 -7 -6 -4 rrcurveto
          -14 -15 -61 -1 -48 hhcurveto
          -48 -63 1 14 -11 hvcurveto
          -4 4 3 7 -3 6 rrcurveto
          11 -4 -11 6 -14 hhcurveto
          -27 -14 -18 -20 -3 hvcurveto
          -83 -14 115 -7 86 hhcurveto
          85 114 7 83 14 hvcurveto
          endchar
        </CharString>
        <CharString name="brokenbar">
          215 callsubr
          hstemhm
          215 84 -44 84 -52 84 -45 84 hintmask 01000100
          371 404 rmoveto
          39 234 rlineto
          14 3 5 40 -41 hhcurveto
          -41 -7 -40 -14 -3 hvcurveto
          hintmask 00001000
          -39 -234 rlineto
          -21 -3 16 -17 23 hhcurveto
          23 22 17 21 3 hvcurveto
          -72 -431 rmoveto
          hintmask 00010000
          40 234 rlineto
          21 3 -16 17 -23 hhcurveto
          -23 -22 -17 -21 -3 hvcurveto
          hintmask 10100000
          -40 -234 84 callsubr
          endchar
        </CharString>
        <CharString name="bullet">
          94 284 hstem
          138 callsubr
          endchar
        </CharString>
        <CharString name="c">
          96 callsubr
          hstemhm
          106 83 0 102 125 102 hintmask 11101000
          -46 callsubr
          hintmask 10010000
          87 callsubr
          endchar
        </CharString>
        <CharString name="cacute">
          198 callsubr
          146 -20 hstemhm
          106 83 0 102 125 102 hintmask 11001010
          -46 callsubr
          hintmask 10000100
          87 callsubr
          hintmask 00110000
          12 479 -101 callgsubr
          30 12 7 16 59 callsubr
        </CharString>
        <CharString name="caron">
          623 -20 hstem
          512 591 -93 callgsubr
        </CharString>
        <CharString name="caron.cap">
          596 -20 hstem
          505 557 -100 callgsubr
        </CharString>
</ttFont>
